<svg xmlns="http://www.w3.org/2000/svg" viewBox="0 0 26.04 18.2"><defs><style>.cls-1{fill:#096978;}</style></defs><g id="Layer_2" data-name="Layer 2"><g id="Layer_1-2" data-name="Layer 1"><path class="cls-1" d="M25.66,12,14,.37A1.31,1.31,0,0,0,13,0a1.34,1.34,0,0,0-1,.37L.38,12a1.27,1.27,0,0,0,0,1.82,1.28,1.28,0,0,0,1.81,0L13,3,23.84,13.83A1.29,1.29,0,0,0,25.66,12Z"/><path class="cls-1" d="M22.1,16.63,13.74,8.27A.91.91,0,0,0,13,8a.9.9,0,0,0-.72.27L3.94,16.63a.92.92,0,1,0,1.3,1.3L13,10.16l7.77,7.77a.93.93,0,0,0,1.31,0A.92.92,0,0,0,22.1,16.63Z"/></g></g></svg>