<svg xmlns="http://www.w3.org/2000/svg" viewBox="0 0 98.21 98"><defs><style>.cls-1{opacity:0.9;}.cls-2{fill:#199798;}</style></defs><g id="Layer_2" data-name="Layer 2"><g id="Layer_1-2" data-name="Layer 1"><g class="cls-1"><path class="cls-2" d="M49.18,0Q69,0,88.78,0A7.63,7.63,0,0,1,94.53,2.8c.54.57,1.19,1,1.68,1.61a9.77,9.77,0,0,1,2,6.62c-.06,25.88,0,51.76,0,77.64A7,7,0,0,1,95.57,94c-.61.55-1.1,1.31-1.73,1.84A8,8,0,0,1,88.5,98q-39.3-.08-78.59,0c-1.07,0-2.28.36-3-.82-2.7-.35-3.92-2.65-5.32-4.45A8.67,8.67,0,0,1,0,87.27C.06,77,0,66.63,0,56.31Q0,33.57,0,10.83A7.61,7.61,0,0,1,.36,7.64,12.21,12.21,0,0,1,3.5,3,19.14,19.14,0,0,0,5,1.51c.09-.08.15-.27.22-.27C6.63,1.23,7.53,0,9,0c13.4.06,26.8,0,40.19,0ZM75,68c1.68.3,2.73-.93,3.91-1.65,1-.6,1.64-1.73,2.6-2.37,1.31-.88,1.69-2.33,2.34-3.54a3,3,0,0,0-.22-3.19,70.17,70.17,0,0,0-6.34-6.57c-2.26-1.91-4-4.43-6.27-6.31-2.1-1.7-3.6-4-5.73-5.7-2.29-1.86-4-4.37-6.26-6.31S55,28,52.77,26c-.79-.72-1.83-.85-2.56-1.51a1.34,1.34,0,0,0-1.39-.42,9.73,9.73,0,0,0-2.72,1.45c-1.65,1.44-3.17,3-4.72,4.58s-3.44,3.33-5.09,5.05c-2.29,2.37-4.67,4.64-7,7-1.67,1.72-3.45,3.33-5.09,5.06-2.54,2.67-5.24,5.17-7.78,7.84A8.44,8.44,0,0,0,14.21,58c-.57,1.76.7,3.12,1.13,4.66,0,.1.17.17.27.22a6.14,6.14,0,0,1,1.64,1.53,17.7,17.7,0,0,0,4.29,3.43c.92.61,4.63-.29,5.51-1.22a41.74,41.74,0,0,1,4-4.06c2.18-1.77,3.74-4.17,6-5.95s3.82-4.2,6-6.05a62,62,0,0,0,5-5.15,1.41,1.41,0,0,1,2.16,0,41.39,41.39,0,0,0,3.16,3.32c2.85,2.41,5.16,5.36,8,7.8C63,58,64.25,59.77,66,61.18a34,34,0,0,1,4.12,4.19A7.22,7.22,0,0,0,75,68Z"/></g></g></g></svg>