<svg xmlns="http://www.w3.org/2000/svg" viewBox="0 0 141.38 141.38"><defs><style>.cls-1{fill:#126c6d;}.cls-2{fill:#fff;}</style></defs><g id="Layer_2" data-name="Layer 2"><g id="Layer_1-2" data-name="Layer 1"><circle class="cls-1" cx="70.69" cy="70.69" r="70.69"/><path class="cls-2" d="M77.63,52.34q0,14,0,28a6.33,6.33,0,0,1-.49,2.53c-2,4.83-4,9.67-6,14.51-.22.53-.34,1.25-1.07,1.29s-1-.75-1.19-1.31c-2-4.87-4-9.76-6.05-14.63A6.83,6.83,0,0,1,62.34,80q0-27.4,0-54.82c0-4.54,2-6.53,6.59-6.51a21.49,21.49,0,0,1,4.53.19A5,5,0,0,1,77.63,24Q77.65,38.16,77.63,52.34Zm-4.75,4.29V65.3q0,6.83,0,13.63c0,.56-.17,1.22.66,1.46,1.71.5,2.51,0,2.51-1.79v-44c0-.32,0-.64,0-1a.67.67,0,0,0-.42-.64,1.78,1.78,0,0,0-2.73,1.66Q72.88,45.62,72.88,56.63Zm-8.8,0q0,11.15,0,22.3c0,1,.16,1.55,1.34,1.56S67,80.15,67,78.91q0-22.3,0-44.6a7.56,7.56,0,0,0,0-.83.66.66,0,0,0-.51-.57c-1.49-.51-2.35.09-2.35,1.67Q64.07,45.59,64.08,56.61Zm4.47,0c0,7.43,0,14.86,0,22.29,0,1.26.45,1.6,1.62,1.52s1-.83,1-1.56V34.43c0-.19,0-.37,0-.55,0-.68-.29-1-1-1-1.11-.09-1.65.14-1.64,1.46C68.58,41.76,68.55,49.19,68.55,56.63ZM70,20.42h0c-.82,0-1.65,0-2.47,0a3.47,3.47,0,0,0-3.45,3.4c0,.87,0,1.74,0,2.61s.32,1.31,1.28,1.29c2.48,0,5,0,7.43,0,3.79,0,3.26.62,3.27-3.4a3.59,3.59,0,0,0-3.83-3.9C71.48,20.41,70.75,20.42,70,20.42Zm0,75.39c1.86-4.48,3.56-8.62,5.3-12.75.28-.68.15-.9-.58-.9q-4.68,0-9.34,0c-.7,0-.91.23-.62.91C66.51,87.21,68.21,91.35,70,95.81ZM70,31.3c1.69,0,3.39,0,5.09,0,.67,0,1-.24,1-1s-.29-1.07-1-1.07c-3.3,0-6.61,0-9.91,0-.67,0-1,.23-1,.95s.29,1.08,1.06,1.07C66.74,31.29,68.35,31.3,70,31.3Z"/><path class="cls-2" d="M78.61,107.08h30.6c.8,0,1.59.09,1.75-1a.83.83,0,0,1,.84-.6l.83,0c3.19,0,3.82.75,3.14,3.91a1.77,1.77,0,0,1-.17.52c-.56.86-4.35.62-4.68-.35-.26-.75-.68-.86-1.33-.86q-17.22,0-34.44,0c-1.13,0-1.49.45-1.38,1.48s-.4,1.59-1.52,1.55q-2.2-.06-4.41,0c-1.13,0-1.69-.48-1.56-1.55.17-1.31-.44-1.49-1.56-1.48q-16.33,0-32.65,0c-.8,0-1.58-.08-1.76,1-.07.46-.52.61-1,.62H27.55c-2,0-2.12-.11-2.09-2.1,0-.88-.44-2.08.52-2.55,1.15-.56,2.51-.24,3.79-.13a.61.61,0,0,1,.42.32c.32,1.57,1.55,1.23,2.59,1.23q14.05,0,28.12,0c0-.34-.27-.31-.43-.39-7.74-3.88-12.22-10-13.06-18.72,0-.58-.13-1-.83-1a.48.48,0,0,1-.27,0c-1.66-1-.56-2.66-.79-4-.14-.85.51-1.19,1.32-1.19,4.48,0,3.72-.41,3.79,3.53,0,.81,0,1.57-1,1.76-.67.12-.65.7-.6,1.21a21,21,0,0,0,16.15,18.27c.74.16,1.16,0,1.11-.83-.08-1.27.61-1.67,1.8-1.62,1.42.06,2.84,0,4.27,0,.93,0,1.51.34,1.45,1.37s.53,1.15,1.41.92A21.14,21.14,0,0,0,90.43,89.29c.07-.5.17-1,.22-1.5s0-.77-.52-.78c-1.17,0-1.24-.86-1.28-1.73-.18-3.56-.18-3.56,3.3-3.53,1.82,0,2,.16,2,2,0,.69,0,1.38,0,2.07s-.27,1.18-1,1.19-.83.32-.89.93q-1.35,13.25-13.41,18.9C78.75,106.83,78.72,106.93,78.61,107.08ZM70,110c2.17,0,2.17,0,2.16-2.3,0-1.84,0-1.84-2.36-1.83-1.89,0-1.77,0-1.92,2.72C67.82,110.49,69,109.94,70,110Z"/><path class="cls-2" d="M70.43,116.92H44c-.41,0-.83,0-1.24,0s-1-.2-1-.86.54-.67,1-.68h1q26.78,0,53.56,0c.69,0,1.88-.43,1.91.69s-1.2.84-1.94.84C88.32,116.93,79.38,116.92,70.43,116.92Z"/><path class="cls-2" d="M109.49,116.9h-2.88c-.56,0-1-.2-1-.86s.54-.68,1-.68h5.75c.49,0,1,.09,1,.7s-.46.83-1,.84C111.4,116.92,110.44,116.9,109.49,116.9Z"/></g></g></svg>