<svg xmlns="http://www.w3.org/2000/svg" viewBox="0 0 74.9 66.85"><defs><style>.cls-1,.cls-2{fill:none;stroke:#fff;stroke-miterlimit:10;}.cls-1{stroke-width:1.06px;}.cls-2{stroke-width:1.83px;}.cls-3{fill:#fff;}</style></defs><g id="Layer_2" data-name="Layer 2"><g id="Layer_1-2" data-name="Layer 1"><path class="cls-1" d="M.54,2.78C2.1.69,4.05.53,6.17.53q31.22.06,62.42,0c2.18,0,4.2.13,5.78,2.28V64a5.48,5.48,0,0,1-4.66,2.29q-31.12-.06-62.23,0c-2.47,0-5.09.52-6.95-2.34Z"/><path class="cls-1" d="M37.4,61.52c10.1,0,20.2,0,30.3,0,1.81,0,2.34-.62,2.33-2.38q-.07-22,0-44.06c0-1.76-.51-2.38-2.33-2.38q-30.21.07-60.42,0c-1.9,0-2.44.63-2.43,2.47q.09,21.94,0,43.88c0,1.83.53,2.49,2.43,2.47C17.32,61.48,27.36,61.52,37.4,61.52Z"/><path class="cls-2" d="M50.93,9.35A2.77,2.77,0,0,0,53.5,6.69a2.7,2.7,0,1,0-5.4,0A3,3,0,0,0,50.93,9.35Z"/><path class="cls-2" d="M59,3.93a2.87,2.87,0,0,0-2.68,2.78,3,3,0,0,0,2.85,2.66,2.81,2.81,0,0,0,2.55-2.7A2.89,2.89,0,0,0,59,3.93Z"/><path class="cls-2" d="M69.86,6.62a2.7,2.7,0,0,0-5.4,0,3,3,0,0,0,2.72,2.78A2.8,2.8,0,0,0,69.86,6.62Z"/><path class="cls-3" d="M21.42,36c2.7,1.09,5.45,2.17,8.17,3.29a3.74,3.74,0,0,1,1.9,4.86c-.33.75-.86.59-1.38.36-4.71-2.05-9.42-4.07-14.1-6.18-1.41-.63-1.61-4.29-.21-4.94,4.77-2.2,9.63-4.22,14.45-6.3a.85.85,0,0,1,1.16.23c.87,1.25,0,4.29-1.51,4.87-2.52,1-5.07,2-7.6,3C22,35.26,21.56,35.33,21.42,36Z"/><path class="cls-3" d="M53.49,35.54l-8.07-3.18a3.6,3.6,0,0,1-2.06-4.77c.3-.74.82-.67,1.36-.44q7.08,3,14.14,6.11c1.55.68.91,2.1,1,3.26a1.78,1.78,0,0,1-1.31,2q-6.72,2.9-13.42,5.88c-1.41.63-1.89.23-1.9-1.27,0-3-.07-3,2.67-4.07,2.51-1,5-2,7.55-3Z"/><path class="cls-3" d="M33.06,45.92c.38-1.69.74-3.38,1.15-5.06,1.16-4.81,2.34-9.61,3.51-14.42.13-.54.28-1.08.46-1.6.39-1.15,1.14-1.8,2.4-1.46s1.42,1.27,1.17,2.36q-.84,3.71-1.72,7.4c-.93,3.85-1.86,7.69-2.82,11.53A13,13,0,0,1,36.47,47a1.73,1.73,0,0,1-2.17,1C33.27,47.68,33,46.91,33.06,45.92Z"/></g></g></svg>