<svg xmlns="http://www.w3.org/2000/svg" viewBox="0 0 72.94 65.53"><defs><style>.cls-1{fill:#1a1a1a;}</style></defs><g id="Layer_2" data-name="Layer 2"><g id="Layer_1-2" data-name="Layer 1"><path class="cls-1" d="M39.73,65.53q-14.76,0-29.51,0A14.2,14.2,0,0,1,5.45,65,7.88,7.88,0,0,1,.09,57.58c0-6.76,0-13.52,0-20.28C.07,31.76,0,26.22,0,20.69c0-4.44,0-8.87.11-13.3C.16,4.23,2.74,1.2,6,.27a8.14,8.14,0,0,1,8.69,3.2A7.07,7.07,0,0,1,16.1,7.79c-.05,1,.32,1.22,1.24,1.21C25.5,9,33.65,9,41.81,9h29c1.79,0,1.95.09,2,1.83.09,2.39,0,4.78,0,7.17,0,2.24,0,4.49,0,6.74,0,2.07.07,4.14,0,6.21-.05,2.53,0,5.06,0,7.59,0,2.18-.05,4.35-.06,6.53s0,4.5.06,6.74c0,1.93,0,3.87,0,5.78-.06,2.11.22,4.21-.05,6.32-.15,1.2-.46,1.63-1.64,1.63H39.73Zm3.59-54.11v0c-8.62,0-17.24,0-25.86,0-.9,0-1.18.3-1.18,1.18q0,16.16,0,32.31,0,5.85,0,11.7c0,.85-.32,1.51-1.26,1.56s-1.23-.57-1.34-1.37c-.48-3.39-2.59-5.13-6-5a5.52,5.52,0,0,0,.7,11c2-.12,4.07,0,6.1,0,2.32,0,4.64.05,7,.07h7.06l6.64,0H48.69c2.07,0,4.14-.06,6.21,0,2.32,0,4.64.07,7,.08s4.84,0,7.26,0c.86,0,1.25-.15,1.23-1.1,0-2.61,0-5.22,0-7.83q0-20.67,0-41.33c0-.95-.35-1.21-1.27-1.21Q56.21,11.44,43.32,11.42Zm-29.66,40V38c0-10,0-20,0-30,0-3.31-2.45-5.54-5.85-5.5A5.49,5.49,0,0,0,2.57,8.12q0,21.14,0,42.26c0,.29-.15.64.19.88C6.35,48.7,9.91,48.66,13.66,51.45Z"/><path class="cls-1" d="M59.26,26.11a1.63,1.63,0,0,1-.42,1.07c-.67,1-1.34,1.95-2,2.94a1.23,1.23,0,0,0,.86,2.06c1.12.24,2.24.46,3.37.66a1.68,1.68,0,0,1,1.59,1.9c0,1.54,0,3.08,0,4.62a1.64,1.64,0,0,1-1.46,1.81c-1,.19-2,.4-3,.58-1.72.3-2.07,1.12-1.08,2.48.65.9,1.27,1.82,1.92,2.72a1.45,1.45,0,0,1-.16,2.11c-1.18,1.19-2.37,2.37-3.57,3.56a1.37,1.37,0,0,1-1.93.17l-2.93-2c-1.17-.8-1.91-.54-2.26.85-.28,1.11-.5,2.24-.7,3.36a1.41,1.41,0,0,1-1.59,1.36c-1.68,0-3.36,0-5,0a1.38,1.38,0,0,1-1.54-1.3c-.19-1-.4-2-.55-2.95-.23-1.54-1.23-2.34-2.67-1.18-.86.7-1.84,1.23-2.76,1.85a1.25,1.25,0,0,1-1.75-.12c-1.22-1.2-2.52-2.32-3.65-3.62a1.56,1.56,0,0,1-.11-2.21c.67-.93,1.29-1.89,1.92-2.84s.37-1.92-.91-2.19-2.31-.47-3.47-.66a1.52,1.52,0,0,1-1.42-1.69c0-1.64,0-3.29,0-4.93a1.5,1.5,0,0,1,1.33-1.66c1.16-.24,2.32-.44,3.47-.69s1.61-1.11.9-2.18-1.3-2-2-2.94a1.51,1.51,0,0,1,.15-2.13q1.73-1.76,3.5-3.48a1.46,1.46,0,0,1,2.11-.15c1,.72,2,1.38,3,2.05s1.72.37,2-.73.57-2.36.77-3.56a1.54,1.54,0,0,1,1.74-1.48c1.54,0,3.08,0,4.62,0,1.28,0,1.64.34,1.88,1.58.2,1.05.37,2.11.62,3.15.35,1.47,1.07,1.74,2.3.91,1-.67,2-1.32,2.92-2a1.3,1.3,0,0,1,1.84.1c1.26,1.23,2.49,2.47,3.73,3.71A1.45,1.45,0,0,1,59.26,26.11Zm-2.94.48a1,1,0,0,0-.38-.7c-.48-.48-1-.93-1.44-1.44a.7.7,0,0,0-1.1-.1c-.88.62-1.77,1.21-2.67,1.8a2,2,0,0,1-1.37.5c-2.28-.3-3.29-1.42-3.74-3.68-.64-3.2-.06-2.6-3.15-2.68-.66,0-.94.27-1,.93-.16,1.09-.42,2.17-.63,3.25A1.51,1.51,0,0,1,40,25.66c-1.76.79-3.53,1.47-5.14-.32a1.8,1.8,0,0,0-.35-.24C32.8,24,32.8,24,31.42,25.35a2.85,2.85,0,0,1-.47.45.81.81,0,0,0-.22,1.4c.22.27.36.62.6.88,1.44,1.55,1.9,3.21.67,5.1a.73.73,0,0,0-.06.21,1.48,1.48,0,0,1-1.31,1.09c-1.05.18-2.09.45-3.15.64a1.17,1.17,0,0,0-1.11,1.29c0,2.34-.07,2.34,2.17,2.84a2.1,2.1,0,0,0,.42.09c2-.05,2.86,1,3.46,2.79a2.51,2.51,0,0,1-.32,2.66,8.54,8.54,0,0,0-.56.78c-1.71,2.68-1.62,1.75.49,4a.82.82,0,0,0,1.22.15c.92-.62,1.86-1.21,2.79-1.81a1.54,1.54,0,0,1,1.19-.35c2.51.48,3.34,1.32,3.78,3.87a.41.41,0,0,0,0,.11c.77,2.74-.08,2.31,3,2.36a1,1,0,0,0,1.16-1c.18-1.05.41-2.1.65-3.14a1.37,1.37,0,0,1,.73-1.12c.82-.34,1.64-.7,2.47-1a1.46,1.46,0,0,1,1.42.23c.42.29.82.58,1.24.86,2.29,1.52,2.28,1.51,4.16-.47a.8.8,0,0,0,.12-1.2c-.65-.9-1.24-1.84-1.85-2.76a1.67,1.67,0,0,1-.23-1.63c1-2.74,1-2.74,3.83-3.41.31-.08.63-.14,1-.2,1.49-.24,1.48-.24,1.4-1.69a3.82,3.82,0,0,1,0-1.07c.22-.82-.2-1.07-.9-1.2-1.09-.2-2.17-.46-3.26-.66a1.85,1.85,0,0,1-1.29-1.13c-1-1.88-1-3.55.59-5.1a6.73,6.73,0,0,0,.8-1.15C56.15,26.92,56.24,26.73,56.32,26.59Z"/><path class="cls-1" d="M43.15,45.42a8.34,8.34,0,0,1-8.27-8.27,8.39,8.39,0,1,1,8.27,8.27Zm-5.79-8.36a5.92,5.92,0,1,0,5.88-5.85A5.9,5.9,0,0,0,37.36,37.06Z"/></g></g></svg>