<svg xmlns="http://www.w3.org/2000/svg" viewBox="0 0 62.95 68.25"><defs><style>.cls-1{fill:#1a1a1a;}</style></defs><g id="Layer_2" data-name="Layer 2"><g id="Layer_1-2" data-name="Layer 1"><path class="cls-1" d="M36.29,23.38q0,9.72,0,19.42A4.42,4.42,0,0,1,36,44.56c-1.4,3.35-2.77,6.72-4.16,10.08-.15.37-.24.87-.74.89s-.67-.52-.83-.91c-1.41-3.38-2.8-6.77-4.2-10.16a4.74,4.74,0,0,1-.36-1.86q0-19,0-38.06C25.68,1.38,27.07,0,30.26,0A14.37,14.37,0,0,1,33.4.15a3.47,3.47,0,0,1,2.89,3.53Q36.3,13.54,36.29,23.38Zm-3.3,3v6c0,3.16,0,6.31,0,9.47,0,.38-.12.84.46,1,1.18.35,1.74,0,1.74-1.24V11c0-.22,0-.44,0-.67a.48.48,0,0,0-.29-.44A1.24,1.24,0,0,0,33,11.07C33,16.17,33,21.27,33,26.36Zm-6.11,0c0,5.17,0,10.33,0,15.49,0,.67.11,1.07.93,1.08s1.11-.22,1.11-1.08q0-15.48,0-31a5.43,5.43,0,0,0,0-.57.45.45,0,0,0-.36-.4c-1-.35-1.63.06-1.63,1.16Zm3.1,0c0,5.16,0,10.32,0,15.48,0,.87.31,1.11,1.12,1.06s.7-.58.7-1.09q0-15.44,0-30.87c0-.12,0-.25,0-.38,0-.47-.2-.66-.68-.7-.77-.06-1.15.1-1.14,1C30,16,30,21.2,30,26.36ZM31,1.22h0c-.57,0-1.14,0-1.72,0a2.41,2.41,0,0,0-2.39,2.36c0,.6,0,1.21,0,1.82s.23.9.89.89c1.72,0,3.44,0,5.16,0,2.63,0,2.26.43,2.28-2.37a2.49,2.49,0,0,0-2.67-2.7C32,1.21,31.51,1.22,31,1.22Zm0,52.35c1.29-3.11,2.47-6,3.68-8.85.2-.48.1-.63-.4-.63H27.81c-.49,0-.63.16-.43.63C28.57,47.59,29.75,50.47,31,53.57ZM31,8.78H34.5c.46,0,.7-.16.71-.67s-.2-.74-.73-.74H27.6c-.47,0-.71.17-.72.67s.21.75.74.74C28.73,8.76,29.85,8.78,31,8.78Z"/><path class="cls-1" d="M37,61.4H58.22c.55,0,1.1.06,1.22-.71,0-.27.3-.4.58-.42l.57,0c2.22,0,2.66.52,2.18,2.71a1.27,1.27,0,0,1-.11.36c-.39.6-3,.43-3.26-.24-.17-.52-.47-.6-.92-.6q-12,0-23.91,0c-.79,0-1,.31-1,1s-.28,1.11-1.06,1.08q-1.53,0-3.06,0c-.78,0-1.17-.33-1.08-1.08.12-.91-.3-1-1.09-1-7.55,0-15.11,0-22.67,0-.55,0-1.09,0-1.22.72-.05.32-.36.42-.67.43H1.52c-1.38,0-1.47-.07-1.45-1.46,0-.61-.31-1.44.35-1.76a5,5,0,0,1,2.64-.09.41.41,0,0,1,.29.22c.22,1.09,1.07.85,1.8.85H24.68c0-.24-.19-.22-.31-.28a15.43,15.43,0,0,1-9.06-13c0-.4-.09-.7-.58-.68a.4.4,0,0,1-.19,0c-1.15-.72-.38-1.84-.54-2.77-.1-.59.35-.83.91-.83,3.11,0,2.58-.28,2.64,2.45,0,.56,0,1.09-.73,1.22-.46.09-.45.49-.41.85A14.6,14.6,0,0,0,27.62,61c.51.11.8,0,.77-.57-.06-.89.42-1.17,1.25-1.13s2,0,3,0c.65,0,1,.23,1,1s.37.79,1,.64A14.68,14.68,0,0,0,45.18,49c0-.35.11-.69.15-1s0-.53-.36-.55c-.81,0-.86-.59-.89-1.2-.12-2.47-.13-2.47,2.29-2.44,1.27,0,1.37.11,1.38,1.36,0,.47,0,.95,0,1.43s-.19.82-.71.83-.57.22-.62.65A15.35,15.35,0,0,1,37.11,61.2S37,61.29,37,61.4Zm-5.95,2c1.51,0,1.51,0,1.5-1.6,0-1.28,0-1.28-1.64-1.27-1.31,0-1.23,0-1.33,1.89C29.48,63.76,30.32,63.38,31,63.39Z"/><path class="cls-1" d="M31.29,68.22H12.93c-.28,0-.57,0-.86,0s-.72-.14-.69-.59.37-.47.71-.48h.67q18.59,0,37.19,0c.48,0,1.3-.3,1.33.48s-.84.58-1.35.58C43.72,68.23,37.5,68.22,31.29,68.22Z"/><path class="cls-1" d="M58.41,68.21c-.67,0-1.33,0-2,0-.38,0-.71-.14-.68-.6s.37-.46.7-.47h4c.34,0,.67.06.69.48s-.32.57-.7.58C59.74,68.22,59.08,68.21,58.41,68.21Z"/></g></g></svg>