<svg xmlns="http://www.w3.org/2000/svg" viewBox="0 0 38.04 38.04"><defs><style>.cls-1{fill:#fff;}</style></defs><g id="Layer_2" data-name="Layer 2"><g id="Layer_1-2" data-name="Layer 1"><path class="cls-1" d="M15.41,20.8a.56.56,0,0,0-.56-.55H2.34A1.24,1.24,0,0,1,1.11,19V2.34A1.24,1.24,0,0,1,2.34,1.11H19a1.24,1.24,0,0,1,1.23,1.23V14.85a.56.56,0,1,0,1.11,0V2.34A2.34,2.34,0,0,0,19,0H2.34A2.34,2.34,0,0,0,0,2.34V19a2.34,2.34,0,0,0,2.34,2.34H14.85A.56.56,0,0,0,15.41,20.8Z"/><path class="cls-1" d="M35.69,16.67H30.93a.56.56,0,1,0,0,1.12h4.76A1.23,1.23,0,0,1,36.92,19V35.69a1.23,1.23,0,0,1-1.23,1.23H19a1.23,1.23,0,0,1-1.23-1.23V19A1.23,1.23,0,0,1,19,17.79h9.53a.56.56,0,0,0,0-1.12H19A2.36,2.36,0,0,0,16.67,19V35.69A2.36,2.36,0,0,0,19,38H35.69A2.36,2.36,0,0,0,38,35.69V19A2.36,2.36,0,0,0,35.69,16.67Z"/><path class="cls-1" d="M16,6h-4.8V5.32a.56.56,0,0,0-1.12,0V6H5.32a.55.55,0,0,0-.56.55.56.56,0,0,0,.56.56h8.21a15.56,15.56,0,0,1-2.85,5.18A15.42,15.42,0,0,1,8.44,8.66a.56.56,0,0,0-1,.46,17.06,17.06,0,0,0,2.51,4,15,15,0,0,1-3.11,2.47.56.56,0,1,0,.57,1,16.28,16.28,0,0,0,3.29-2.6A16.49,16.49,0,0,0,14,16.52a.6.6,0,0,0,.28.08.56.56,0,0,0,.29-1,15,15,0,0,1-3.11-2.47,16.53,16.53,0,0,0,2-2.89,15.71,15.71,0,0,0,1.29-3.13H16a.56.56,0,0,0,.56-.56A.55.55,0,0,0,16,6Z"/><path class="cls-1" d="M28.11,21.93a.79.79,0,0,0-.74-.49h0a.8.8,0,0,0-.74.5h0l-4,10.57a.56.56,0,0,0,.33.72.63.63,0,0,0,.19,0,.55.55,0,0,0,.52-.36l.87-2.27h5.7l.86,2.27a.56.56,0,1,0,1-.39L28.12,22v0Zm-3.18,7.6,2.44-6.41,2.42,6.41Z"/><path class="cls-1" d="M15.18,30.48,12.8,28.7a.55.55,0,0,0-.78.11.57.57,0,0,0,.11.78l1,.78h-1.9a3.62,3.62,0,0,1-3.62-3.61V23.19a.55.55,0,0,0-.55-.56.56.56,0,0,0-.56.56v3.57a4.73,4.73,0,0,0,4.73,4.73h1.9l-1,.78a.57.57,0,0,0-.11.78.58.58,0,0,0,.45.22.52.52,0,0,0,.33-.11l2.38-1.79a.55.55,0,0,0,.23-.44A.57.57,0,0,0,15.18,30.48Z"/><path class="cls-1" d="M22.85,7.55l2.38,1.79a.53.53,0,0,0,.34.11A.56.56,0,0,0,26,9.23a.55.55,0,0,0-.11-.78l-1-.79h1.9a3.62,3.62,0,0,1,3.61,3.62v3.57a.56.56,0,0,0,1.12,0V11.28a4.73,4.73,0,0,0-4.73-4.73h-1.9l1-.78a.56.56,0,0,0-.67-.89L22.85,6.66a.56.56,0,0,0-.22.45.54.54,0,0,0,.22.44Z"/></g></g></svg>