<?xml version="1.0" encoding="utf-8"?>
<!-- Generator: Adobe Illustrator 24.3.0, SVG Export Plug-In . SVG Version: 6.00 Build 0)  -->
<svg version="1.1" id="Layer_1" xmlns="http://www.w3.org/2000/svg" xmlns:xlink="http://www.w3.org/1999/xlink" x="0px" y="0px"
	 viewBox="0 0 314 253.9" style="enable-background:new 0 0 314 253.9;" xml:space="preserve">
<style type="text/css">
	.st0{fill:#263238;}
	.st1{fill:#455A64;}
	.st2{fill:#EBEBEB;}
	.st3{fill:#E0E0E0;}
	.st4{fill:#FAFAFA;}
	.st5{fill:#049198;}
	.st6{opacity:0.3;}
	.st7{fill:#FFFFFF;}
	.st8{opacity:0.5;}
	.st9{fill:#FFBE9D;}
	.st10{opacity:0.2;}
	.st11{fill:#F5F5F5;}
	.st12{fill:#222221;}
	.st13{fill:none;}
	.st14{opacity:0.7;}
	.st15{fill:#0D5D62;}
</style>
<g id="freepik--Desk--inject-18">
	
		<rect x="126.4" y="164.3" transform="matrix(0.9976 -6.982913e-02 6.982913e-02 0.9976 -13.8632 11.8653)" class="st0" width="72.7" height="79.8"/>
	<polygon class="st1" points="194.1,200.8 193,177.4 129.9,183.3 132.3,207.7 	"/>
	<path class="st1" d="M207.3,241.6l-80.9,5.4c-2.8,0.2-5.3-1.9-5.5-4.8c0,0,0,0,0,0l0,0c-0.2-2.8,1.9-5.3,4.7-5.5c0,0,0,0,0,0
		l80.9-5.4c2.8-0.2,5.3,1.9,5.5,4.8c0,0,0,0,0,0l0,0C212.3,238.9,210.1,241.4,207.3,241.6z"/>
	<rect x="27.9" y="63.7" class="st2" width="269.3" height="122"/>
	<polygon class="st3" points="27.9,185.7 34.9,189.4 290.6,189.1 297.2,185.7 	"/>
</g>
<g id="freepik--Character--inject-18">
	<polygon class="st1" points="101,174.2 100.5,92.1 226.7,92.1 226.7,175.1 	"/>
	<path class="st4" d="M127,158.6c4.9-0.3,9.9,0.9,14.7,1.5l-2.6-0.7c-0.8-8.7,5.6-16.3,14.3-17.1c1.1-0.1,2.1-0.1,3.2,0
		c3.5,0.4,6.9,2,10.3,1.4c6.3-1.1,9.6-8.6,15.6-10.8c7.7-2.9,16.6,3.9,24.2,0.7c3.1-1.3,5.3-4,8.1-5.7c2.4-1.5,6-1.9,8-0.2V110
		c-2,3.9-7,5.8-11.5,5.4c-4.8-0.4-9.1-2.8-13.2-5.2c-4.1-2.4-8.4-4.8-13.1-5.5c-6.7-0.9-13.3,2.1-19.8,4c-5.9,1.7-12.3,2.4-18.1,0.7
		l-0.6-0.2c-0.7,0.7-1.6,1.3-2.5,1.7c-5,2.4-11.7-0.8-16.3,2.3c-2.7,1.9-3.7,5.5-5.7,8.1c-3.7,4.9-12.7,6.3-17.8,2.9V165v5.3h2.7
		C111.4,163.4,118.9,159.1,127,158.6z M204.3,122.4c0.3-0.2,0.7-0.4,1-0.5l0.1-0.1h-0.1c1.6-0.5,3.3,0.5,3.8,2.1
		c0.5,1.6-0.5,3.3-2.1,3.8c-1.6,0.5-3.3-0.5-3.8-2.1c-0.4-1.3,0.1-2.7,1.2-3.4L204.3,122.4z"/>
	<path class="st5" d="M222.9,127.7c-2.1-1.7-5.6-1.3-8,0.2c-2.8,1.7-5.1,4.4-8.1,5.7c-7.6,3.2-16.5-3.6-24.2-0.7
		c-6,2.3-9.3,9.8-15.6,10.8c-3.4,0.6-6.9-1-10.3-1.4c-8.6-1-16.5,5.2-17.5,13.8c-0.1,1.1-0.1,2.1,0,3.2l2.6,0.7
		c3.8,0.4,7.6,0.5,11.2-0.7c10.4-3.5,16.1-16.8,27-18c6.1-0.7,12.1,2.7,18.1,1.6c4.9-0.8,8.8-4.4,12.8-7.2c4-2.9,7.9-5.5,12.4-3.9
		V128C223.1,127.9,223,127.8,222.9,127.7z"/>
	<path class="st5" d="M210.8,135.7c-4,2.9-7.9,6.4-12.8,7.2c-6,1-12.1-2.3-18.1-1.6c-10.9,1.3-16.6,14.5-27,18
		c-3.6,1.2-7.3,1.1-11.2,0.7c-4.9-0.6-9.9-1.7-14.7-1.5c-8.1,0.5-15.5,4.9-20,11.7h2.7c2.6-2.7,6-4.5,9.6-5.4
		c5.4-1.3,11.1-0.2,15.7,3c1,0.7,2,1.6,3,2.4h19.9c0.9-0.5,1.8-1,2.7-1.4c3.6-1.8,7.7-3.1,11.7-2.3c2.4,0.5,4.6,1.8,6.1,3.7h21.3
		c0.7-1.4,1.9-2.5,3.4-3c1.6-0.5,3.5-0.3,4.8-1.3c1.6-1.1,1.9-3.3,2.6-5.2c1.8-5.1,7.6-8.4,13-7.4v-21.6
		C218.7,130.2,214.8,132.9,210.8,135.7z M192,166.1c-3.4,1.7-8-0.2-9.3-3.8c-1-2.8,0.3-6.1,2.7-7.8l-0.5,0.2c0.6-0.5,1.3-0.8,2-1
		c0.2-0.1,0.4-0.2,0.7-0.2l-0.1,0.1c2.7-0.6,5.9,0.5,7.4,2.9C196.7,159.6,195.4,164.4,192,166.1z M215.6,141.9
		c-0.9,0.5-2,0.2-2.4-0.7c-0.5-0.9-0.2-2,0.7-2.4l-0.2,0.1c0.2-0.1,0.4-0.2,0.6-0.3l0.1,0h0c1-0.2,1.9,0.4,2.1,1.4
		C216.7,140.7,216.3,141.5,215.6,141.9L215.6,141.9z"/>
	<path class="st5" d="M210.3,160.9c-0.7,1.8-1,4-2.6,5.2c-1.3,1-3.2,0.8-4.8,1.3c-1.5,0.5-2.8,1.6-3.4,3h23.8v-16.9
		C217.9,152.5,212.1,155.8,210.3,160.9z"/>
	<path class="st5" d="M119.3,164.9c-3.6,0.9-7,2.7-9.6,5.4l28.2,0c-1-0.8-1.9-1.7-3-2.4C130.4,164.7,124.7,163.6,119.3,164.9z"/>
	<path class="st5" d="M172.1,166.6c-4-0.8-8.1,0.4-11.7,2.3c-0.9,0.5-1.8,0.9-2.7,1.4h20.4C176.7,168.4,174.5,167.1,172.1,166.6z"/>
	<path class="st5" d="M163.9,101.4c-3.6,0.3-7.3-0.3-10.5,1.3c-2.8,1.5-4.6,4.5-6.9,6.7c0.2,0.1,0.4,0.1,0.6,0.2
		c5.9,1.7,12.2,1,18.1-0.7c6.5-1.8,13.1-4.9,19.8-4c4.7,0.6,9,3.1,13.1,5.5s8.5,4.8,13.2,5.1c4.5,0.4,9.5-1.5,11.5-5.4V95.5l0,0h-51
		C171.5,99,167.4,101.1,163.9,101.4z"/>
	<path class="st5" d="M203.4,125.7c0.5,1.5,2.2,2.4,3.8,1.8c1.5-0.5,2.4-2.2,1.8-3.8c-0.5-1.5-2.1-2.3-3.6-1.9h0.1l-0.1,0.1
		c-0.4,0.1-0.7,0.3-1,0.5l0.3-0.1C203.5,123,203,124.4,203.4,125.7z"/>
	<path class="st5" d="M187.4,153.6l0.1-0.1c-0.2,0.1-0.4,0.1-0.7,0.2c-0.7,0.2-1.4,0.6-2,1l0.5-0.2c-2.4,1.7-3.7,5-2.7,7.8
		c1.3,3.5,5.9,5.4,9.3,3.8c3.4-1.7,4.7-6.5,2.7-9.7C193.2,154,190.1,153,187.4,153.6z"/>
	<g class="st6">
		<path class="st7" d="M187.4,153.6l0.1-0.1c-0.2,0.1-0.4,0.1-0.7,0.2c-0.7,0.2-1.4,0.6-2,1l0.5-0.2c-2.4,1.7-3.7,5-2.7,7.8
			c1.3,3.5,5.9,5.4,9.3,3.8c3.4-1.7,4.7-6.5,2.7-9.7C193.2,154,190.1,153,187.4,153.6z"/>
	</g>
	<path class="st5" d="M216.3,139.3c-0.4-0.6-1.2-0.9-2-0.8h0l-0.1,0c-0.2,0.1-0.4,0.2-0.6,0.3l0.2-0.1c-0.8,0.5-1.1,1.6-0.5,2.5
		c0.5,0.8,1.6,1.1,2.5,0.5C216.6,141.3,216.9,140.2,216.3,139.3C216.3,139.4,216.3,139.4,216.3,139.3L216.3,139.3z"/>
	<path class="st5" d="M122.1,121.5c2-2.7,3-6.2,5.7-8.1c4.6-3.2,11.3,0.1,16.3-2.3c0.9-0.5,1.7-1,2.5-1.7c2.3-2.2,4-5.2,6.9-6.7
		c3.2-1.6,7-1,10.5-1.3c3.6-0.3,7.6-2.4,7.9-5.9h-67.7l0.1,28.9l0.1,0.1C109.5,127.9,118.4,126.4,122.1,121.5z"/>
	<g class="st6">
		<path class="st7" d="M222.9,127.7c-2.1-1.7-5.6-1.3-8,0.2c-2.8,1.7-5.1,4.4-8.1,5.7c-7.6,3.2-16.5-3.6-24.2-0.7
			c-6,2.3-9.3,9.8-15.6,10.8c-3.4,0.6-6.9-1-10.3-1.4c-8.6-1-16.5,5.2-17.5,13.8c-0.1,1.1-0.1,2.1,0,3.2l2.6,0.7
			c3.8,0.4,7.6,0.5,11.2-0.7c10.4-3.5,16.1-16.8,27-18c6.1-0.7,12.1,2.7,18.1,1.6c4.9-0.8,8.8-4.4,12.8-7.2c4-2.9,7.9-5.5,12.4-3.9
			V128C223.1,127.9,223,127.8,222.9,127.7z"/>
	</g>
	<g class="st6">
		<path class="st7" d="M152.8,95.5h-48.8l0.1,28.9l0.1,0.1c5.1,3.4,14.1,2,17.8-2.9c2-2.7,3-6.2,5.7-8.1c4.6-3.2,11.3,0.1,16.3-2.3
			c0.9-0.5,1.7-1,2.5-1.7c2.3-2.2,4-5.2,6.9-6.7c3.2-1.6,7-1,10.5-1.3c3.6-0.3,7.6-2.4,7.9-5.9"/>
	</g>
	<path class="st0" d="M190.2,130.5c-0.2-0.8-1.8-7-4.7-18.2h0.1l-52.2,13.3l0,0l0.1-0.1c1.6,6.4,3.2,12.5,4.7,18.3l-0.1,0
		L190.2,130.5L138,143.8H138v-0.1c-1.5-5.7-3-11.9-4.7-18.3v-0.1h0.1l0,0l52.2-13.2h0v0C188.5,123.5,190,129.6,190.2,130.5z"/>
	
		<rect x="189.5" y="129.6" transform="matrix(0.9692 -0.2462 0.2462 0.9692 -26.2162 50.8197)" class="st1" width="1.4" height="1.4"/>
	<rect x="137.3" y="143" transform="matrix(0.9692 -0.2462 0.2462 0.9692 -31.133 38.3876)" class="st1" width="1.4" height="1.4"/>
	
		<rect x="184.8" y="111.3" transform="matrix(0.9692 -0.2462 0.2462 0.9692 -21.8485 49.1099)" class="st1" width="1.4" height="1.4"/>
	
		<rect x="158.5" y="117.9" transform="matrix(0.9692 -0.2462 0.2462 0.9692 -24.305 42.8342)" class="st1" width="1.4" height="1.4"/>
	
		<rect x="163.1" y="136.3" transform="matrix(0.9692 -0.2462 0.2462 0.9692 -28.6726 44.5452)" class="st1" width="1.4" height="1.4"/>
	
		<rect x="134.9" y="133.6" transform="matrix(0.9692 -0.2462 0.2462 0.9692 -28.8853 37.508)" class="st1" width="1.4" height="1.4"/>
	
		<rect x="187.1" y="120.3" transform="matrix(0.9692 -0.2462 0.2462 0.9692 -24.0087 49.9575)" class="st1" width="1.4" height="1.4"/>
	
		<rect x="132.6" y="124.8" transform="matrix(0.9692 -0.2462 0.2462 0.9692 -26.7827 36.6843)" class="st1" width="1.4" height="1.4"/>
	<path class="st0" d="M146.2,127l-3.8,1l-0.5-1.8l9.6-2.4l0.5,1.8l-3.8,1l2.4,9.6l-2.1,0.5L146.2,127z"/>
	<path class="st0" d="M162.2,129.3l-6.8,1.7c0.6,1.2,2,1.8,3.3,1.3c0.9-0.2,1.7-0.7,2.1-1.5l1.4,1c-0.6,1.2-1.8,2-3.1,2.3
		c-2.9,0.7-5.3-0.7-5.9-3.2c-0.7-2.4,0.7-4.8,3-5.5c0.1,0,0.2-0.1,0.3-0.1c2.3-0.7,4.7,0.6,5.4,2.9c0,0.1,0.1,0.3,0.1,0.4
		C162.1,128.8,162.1,129.1,162.2,129.3z M155,129.6l4.9-1.2c-0.4-1.2-1.7-1.9-3-1.5C155.7,127.2,154.8,128.4,155,129.6z"/>
	<path class="st0" d="M170.3,131.1l-3-2.4l-1.5,3.6l-2.2,0.6l2.3-5.2l-4.3-3.4l2.3-0.6l2.8,2.3l1.4-3.4l2.2-0.6l-2.2,5.1l4.5,3.6
		L170.3,131.1z"/>
	<path class="st0" d="M179.2,128.4c-0.5,0.5-1.1,0.9-1.8,1.1c-1.9,0.5-3.2-0.2-3.7-2.2l-1.1-4.2l-1.4,0.4l-0.4-1.6l1.4-0.4l-0.5-2
		l2-0.5l0.5,2l2.3-0.6l0.4,1.6l-2.3,0.6l1,4.1c0.1,0.6,0.6,1.1,1.2,1.1c0.1,0,0.2,0,0.3-0.1c0.4-0.1,0.8-0.3,1-0.7L179.2,128.4z"/>
	<path class="st0" d="M189.2,126.3c0,0-11.7,3-26.1,6.7s-26.1,6.6-26.1,6.6c0,0,11.7-3,26.1-6.7
		C177.5,129.3,189.2,126.3,189.2,126.3z"/>
	<path class="st0" d="M298.1,126.8c0.4-0.2,0.7-0.5,1-0.8c0.8-1,1.3-2.2,1.3-3.5c0-0.9-0.1-1.8-0.5-2.7c-0.5-1-1.2-1.8-2.1-2.4
		c-2.3-1.4-5.2-1.5-7.6-0.4c-2.8,1.1-5.3,3.3-8,5.5c-1.4,1.2-2.9,2.2-4.6,3c-1.8,0.8-3.7,1.3-5.7,1.3c-4.2,0-8.3-1.7-11.1-4.9
		c-1.5-1.6-2.6-3.6-3.1-5.8c-0.6-2.2-0.3-4.6,0.8-6.7c0.6-1,1.4-1.9,2.4-2.5c1-0.7,2.1-1,3.3-0.9c1.2,0.1,2.2,0.6,3,1.4
		c0.8,0.8,1.3,1.8,1.6,2.9c0.6,2.1,0.4,4.3-0.7,6.3c-1.1,1.8-2.8,3.1-4.7,3.8c-1.9,0.6-3.8,0.8-5.8,0.4c-1.8-0.3-3.5-0.9-5.2-1.8
		c-3.2-1.6-5.8-3.5-8.4-5c-2.3-1.4-4.8-2.5-7.4-3c-2-0.3-4.1-0.1-5.9,0.6c-1.2,0.5-2.3,1.2-3.2,2.1l-0.4,0.4
		c-0.1,0.1-0.2,0.2-0.3,0.3l-0.2,0.3c0.1-0.1,0.1-0.2,0.2-0.3l0.2-0.3l0.4-0.4c0.9-1,2-1.7,3.2-2.2c1.9-0.8,4-1,6-0.7
		c2.7,0.5,5.2,1.5,7.5,3c2.6,1.5,5.2,3.4,8.4,5c1.6,0.8,3.3,1.4,5.1,1.7c1.9,0.3,3.8,0.2,5.6-0.4c1.9-0.6,3.5-1.9,4.5-3.6
		c1-1.8,1.2-4,0.6-6c-0.3-1-0.8-2-1.5-2.7c-0.8-0.8-1.8-1.2-2.8-1.3c-1.1,0-2.2,0.3-3.1,0.9c-0.9,0.6-1.7,1.4-2.3,2.4
		c-1.1,2-1.3,4.3-0.7,6.4c0.5,2.1,1.6,4,3,5.6c2.8,3.1,6.8,4.8,10.9,4.8c1.9,0,3.8-0.4,5.5-1.2c1.6-0.8,3.1-1.8,4.5-2.9
		c2.7-2.2,5.2-4.4,8.1-5.5c2.8-1.1,5.8-0.9,7.8,0.5c0.9,0.6,1.7,1.5,2.2,2.5c0.4,0.9,0.6,1.8,0.5,2.7c0,1.3-0.5,2.6-1.4,3.5
		c-0.1,0.1-0.3,0.3-0.4,0.4c-0.1,0.1-0.2,0.2-0.4,0.2L298.1,126.8z"/>
	<g class="st6">
		<path d="M210.3,160.9c-0.7,1.8-1,4-2.6,5.2c-1.3,1-3.2,0.8-4.8,1.3c-1.5,0.5-2.8,1.6-3.4,3h23.8v-16.9
			C217.9,152.5,212.1,155.8,210.3,160.9z"/>
	</g>
	<g class="st6">
		<path d="M216.3,139.3c-0.4-0.6-1.2-0.9-2-0.8h0l-0.1,0c-0.2,0.1-0.4,0.2-0.6,0.3l0.2-0.1c-0.8,0.5-1.1,1.6-0.5,2.5
			c0.5,0.8,1.6,1.1,2.5,0.5C216.6,141.3,216.9,140.2,216.3,139.3C216.3,139.4,216.3,139.4,216.3,139.3L216.3,139.3z"/>
	</g>
	<g class="st6">
		<path d="M119.3,164.9c-3.6,0.9-7,2.7-9.6,5.4l28.2,0c-1-0.8-1.9-1.7-3-2.4C130.4,164.7,124.7,163.6,119.3,164.9z"/>
	</g>
	<g class="st6">
		<path d="M172.1,166.6c-4-0.8-8.1,0.4-11.7,2.3c-0.9,0.5-1.8,0.9-2.7,1.4h20.4C176.7,168.4,174.5,167.1,172.1,166.6z"/>
	</g>
	<path class="st5" d="M135,202.9c1.8-3.3,6.1-4.4,9.8-4.3c3.8,0.1,7.5,1.2,11.3,1.1c8.6-0.4,16-7.3,24.7-7
		c5.2,0.1,10.2,2.9,15.3,1.9c1.2-0.2,2.7-0.6,3.6,0.2c0.7,0.8,0.7,2,0.1,2.8c-0.6,0.8-1.5,1.4-2.4,1.8c-13.1,6.7-28.3,7.3-42.9,9.1
		c-3.7,0.5-7.5,1-11.2,0.4s-7.4-2.8-8.9-6.2"/>
	<g class="st8">
		<path d="M135,202.9c1.8-3.3,6.1-4.4,9.8-4.3c3.8,0.1,7.5,1.2,11.3,1.1c8.6-0.4,16-7.3,24.7-7c5.2,0.1,10.2,2.9,15.3,1.9
			c1.2-0.2,2.7-0.6,3.6,0.2c0.7,0.8,0.7,2,0.1,2.8c-0.6,0.8-1.5,1.4-2.4,1.8c-13.1,6.7-28.3,7.3-42.9,9.1c-3.7,0.5-7.5,1-11.2,0.4
			s-7.4-2.8-8.9-6.2"/>
	</g>
	<path class="st9" d="M238.8,181.6l-23.8-42l-1.9-3.8c-0.9-1.7-2.6-2.9-4.6-3l-3.8-0.3c0,0,0.3-4.5-1.8-4.1
		c-1.3,0.2-6.2,4.4-5.2,5.6c0.9,1.2,3.7-1.9,3.7-1.9l1.1,7.8c0,0-7.3-4.2-8.5-4c-0.6,0.1-1,0.6-0.9,1.2c0.1,0.4,0.3,0.7,0.6,0.8
		c3.6,2.1,6.6,5.2,8.4,9l0,0l16.9,37.6l-5.8,4.6l6.8,17.9l14.4-9.9c5.5-2.8,7.6-9.6,4.8-15.1C239,181.9,238.9,181.8,238.8,181.6z"/>
	
		<rect x="190.1" y="131.4" transform="matrix(0.4621 -0.8868 0.8868 0.4621 -14.6241 239.5529)" class="st0" width="0.1" height="0.8"/>
	<path class="st0" d="M190.4,131.8l3,0.1l17,9.4c0.6,0.3,0.8,1.1,0.5,1.7l0,0c-0.3,0.6-1.1,0.9-1.7,0.5l-16.9-9l-2.1-2.3
		c-0.1-0.1-0.1-0.2,0-0.3C190.3,131.8,190.4,131.8,190.4,131.8z"/>
	<polygon class="st1" points="208.8,140.3 207.6,142.6 206.9,142.3 208.1,140 	"/>
	<path class="st9" d="M140.3,141.2c-1.2-0.1-5.7,3.9-5.7,3.9l-2.2-8.1c0,0,3,0.3,3.8-1.1c0.8-1.3-7.3-1.2-7.5-0.3
		c-0.2,0.9,0.5,3.3,0.5,3.3l-3.1,0.6c-2.6,0.5-4.5,2.6-4.9,5.2l-0.5,4.3l0.1,0L97,188.9c-3.8,6.3-2.5,14.4,3.1,19.3l23.8,16.9
		l8.9-19.4l-17.6-11.6l20.2-38.9c0,0,4.5-11.4,5.5-12c0.5-0.3,0.7-1,0.4-1.5C141.1,141.4,140.7,141.2,140.3,141.2z"/>
	<path class="st5" d="M223.5,208.2l-0.3-2.8c-0.3-3.3-2-6.3-4.6-8.3l0,0c-3-2.4-4.8-6.1-4.6-9.9l0-1.1l-12.2,7.5
		c-1.3,0.9-2.5,1.9-3.6,3v-0.1c0,0-26,0.4-63.8,5.9l-14.3-5.2l1.2,1c0.7,3.8-0.6,7.2-3.3,9.9l0,0c-2.3,2.4-3.5,5.6-3.3,8.9l0.1,2.8
		c0,0,8.5,5.6,14.8,7.7l0.2,0.1c10.4,4.6,21.8,6.8,33.2,6.3c23.2-0.9,42.3-13.3,44.9-15C213.8,215.8,223.5,208.2,223.5,208.2z"/>
	<path class="st0" d="M134.5,202.4c0.1,0.1,0.2,0.1,0.3,0.2c0.2,0.1,0.4,0.4,0.7,0.6c0.8,0.8,1.5,1.7,2.2,2.6c1,1.4,1.7,2.9,2.2,4.6
		c0.6,2,0.8,4.1,0.5,6.2c-0.2,1.1-0.5,2.1-0.9,3.1c-0.4,0.9-1,1.8-1.5,2.6c-0.9,1.4-2.2,2.6-3.6,3.6c-1,0.6-2,1.1-3.1,1.5
		c-0.3,0.1-0.6,0.2-0.9,0.2c-0.1,0-0.2,0.1-0.3,0c0,0,0.4-0.1,1.2-0.4c1.1-0.4,2.1-0.9,3-1.5c1.4-1,2.5-2.2,3.4-3.6
		c0.6-0.8,1.1-1.7,1.5-2.5c0.4-0.9,0.7-2,0.9-3c0.3-2,0.1-4.1-0.5-6c-0.5-1.6-1.2-3.1-2.1-4.5c-0.6-0.9-1.3-1.8-2.1-2.7
		C135,203,134.7,202.7,134.5,202.4z"/>
	<g class="st10">
		<path d="M200.9,222.9c1.9-1.3,0.9-4.1-1.1-5.1c-2.1-1-4.6-0.4-6.8,0.3c-7.1,2.3-13.8,5.7-20.9,8.1c-7.1,2.4-14.8,3.6-22,1.5
			c-5-1.5-8.4-4.7-13.5-4.2c-2.4,0.3-3.1,3.3-6.6,4c5,2.2,10.3,3.8,15.6,4.9c6.4,1.3,13,1.7,19.5,1.2c6.7-0.6,13.3-1.9,19.7-4
			C190.4,228,195.7,225.7,200.9,222.9z"/>
	</g>
	<g class="st10">
		<path d="M140.1,212.2c0,0,0.6-6.3-3.2-10.1l-2.5,0.4C134.4,202.4,137.7,204.8,140.1,212.2z"/>
	</g>
	<path class="st9" d="M152.2,195.4c-0.1,0.3,1.3,15,1.3,15s7.4,10.3,19.1,0.3l1.4-15.9L152.2,195.4z"/>
	<g class="st10">
		<path d="M153.5,210.3c0,0-3.4-5.7-4.4-9.9l2.8-0.3l0.7,0.8L153.5,210.3z"/>
	</g>
	<path class="st0" d="M214.7,214.5c-0.1,0.1-0.2,0.1-0.3,0.2c-0.2,0.1-0.5,0.3-0.9,0.5c-1.1,0.6-2.2,1-3.4,1.3
		c-0.8,0.2-1.7,0.3-2.5,0.2c-1-0.1-1.9-0.3-2.9-0.6c-2.1-0.7-4-2-5.5-3.8c-0.8-0.9-1.4-1.9-1.9-2.9c-0.4-1-0.8-2-1-3
		c-0.5-1.8-0.6-3.6-0.4-5.4c0.2-1.2,0.6-2.4,1.3-3.4c0.2-0.3,0.4-0.5,0.6-0.8c0.2-0.2,0.2-0.3,0.2-0.2c-0.1,0.1-0.1,0.2-0.2,0.3
		c-0.2,0.3-0.4,0.5-0.6,0.8c-0.6,1-1,2.2-1.2,3.4c-0.2,1.8,0,3.6,0.5,5.3c0.3,1,0.6,2,1,3c0.5,1,1.1,2,1.8,2.8
		c3,3.5,7.6,4.8,10.6,4.1c1.2-0.3,2.3-0.7,3.4-1.2C214.2,214.7,214.6,214.4,214.7,214.5z"/>
	<path class="st0" d="M198,210.8l-0.1,0.1l-0.4,0.2l-1.6,0.8c-0.7,0.4-1.5,0.8-2.5,1.3c-1,0.4-2.1,1-3.4,1.5
		c-1.3,0.5-2.7,1.1-4.2,1.6s-3.2,1.1-4.9,1.6c-3.8,1.1-7.6,1.9-11.6,2.5c-3.9,0.5-7.8,0.8-11.8,0.8H155c-0.9,0-1.7-0.1-2.5-0.1
		c-1.6-0.1-3.1-0.2-4.5-0.3s-2.6-0.3-3.7-0.4c-1.1-0.1-2-0.3-2.8-0.4l-1.7-0.3l-0.4-0.1c-0.1,0-0.1,0-0.2,0h0.2l0.5,0.1l1.7,0.3
		c0.8,0.1,1.7,0.3,2.8,0.4c1.1,0.1,2.3,0.3,3.7,0.4c1.4,0.1,2.9,0.3,4.5,0.3c0.8,0,1.6,0.1,2.5,0.1h2.7c3.9,0,7.9-0.3,11.7-0.9
		c3.9-0.6,7.7-1.4,11.5-2.4c1.7-0.5,3.4-1,4.9-1.6s2.9-1.1,4.2-1.6c1.3-0.5,2.4-1,3.4-1.5c1-0.4,1.8-0.9,2.5-1.2l1.6-0.8l0.4-0.2
		L198,210.8z"/>
	<g class="st10">
		<path d="M160,214.4c-0.9,2.4,0.3,5.1,2.7,6c0.6,0.2,1.1,0.3,1.7,0.3c0.7-0.1,1.4-0.1,2.1,0.1c0.8,0.3,1.2,1.1,1.7,1.8
			c2.1,2.7,6,3.2,8.6,1.1c1.4-1.1,2.3-2.8,2.4-4.6c0-0.5,0.1-0.9,0.3-1.3c0.7-0.8,1.9,0,2.8,0.4c2.3,1.2,5.4,0,6.7-2.3
			c1.3-2.3,0.9-5.2-0.6-7.4c-1.6-2.1-3.8-3.6-6.3-4.3c-1.6-0.5-3.3-0.8-4.6-1.9c-1.8-1.6-2-4.3-2-6.7"/>
	</g>
	<path class="st0" d="M179,169.1c1.6,3.6,2.5,5.6,2.7,9.4c0.5,6.5-1.2,13.1-4.9,18.5c0,0,0,0,0,0c-2.8,4.2-11.1,9.5-13.5,10.2
		c-2.5,0.7-12.2-5.4-14.2-12.2c-2-6.8-4.5-11-1.1-23c3.4-12.3,20-12.7,20-12.7s11.1,0,13.1,6.4C183.1,172.2,179,169.1,179,169.1z"/>
	<path class="st0" d="M161.5,182.8c-4.4,0.4-7.5,4.3-7.1,8.7c0.1,1.3,0.6,2.6,1.4,3.7c1.4,2,3.6,3.3,4.7,5.5c1,2,0.8,4.4,0.3,6.5
		c-0.5,2.2-1.2,4.3-1.1,6.5c0,2.2,1,4.6,3,5.6s4.9-0.4,5-2.6c-0.7,3.5,3.4,7,6.7,5.7c3.4-1.2,4.2-6.5,1.5-8.7
		c2.5,0.6,5.2,0.6,7.3-0.8c2.1-1.4,3.2-4.5,1.7-6.6c-1.7-2.5-5.6-2.2-7.7-4.3c-1.8-1.7-1.9-4.5-2-6.9c-0.2-3.6-0.7-7.2-2.5-10.2
		c-1.8-3.1-5.2-5.4-8.7-5.2"/>
	<path class="st4" d="M167.9,216.6c-0.1,0-0.2-0.1-0.4-0.2c-0.1-0.1-0.3-0.1-0.4-0.2c-0.2-0.1-0.4-0.2-0.5-0.4
		c-1.1-0.9-1.9-2-2.4-3.3c-0.3-0.9-0.6-1.8-0.7-2.8c-0.1-1.1-0.1-2.2,0.1-3.3c0.4-2.5,1.2-4.9,2.1-7.1c1-2.3,1.7-4.6,2.1-7.1
		c0.2-1.1,0.2-2.1,0.1-3.2c-0.1-0.9-0.3-1.8-0.7-2.7c-0.5-1.3-1.2-2.4-2.3-3.3c-0.7-0.6-1.2-0.8-1.2-0.9c0.1,0,0.2,0.1,0.4,0.2
		c0.1,0.1,0.3,0.1,0.4,0.2c0.2,0.1,0.4,0.2,0.5,0.4c1.1,0.9,1.9,2,2.4,3.3c0.4,0.9,0.6,1.8,0.7,2.8c0.1,1.1,0.1,2.2-0.1,3.3
		c-0.4,2.5-1.1,4.9-2.1,7.2c-1,2.3-1.7,4.6-2.2,7.1c-0.2,1.1-0.2,2.1-0.1,3.2c0.1,0.9,0.3,1.8,0.6,2.7c0.5,1.3,1.2,2.4,2.2,3.3
		C167.4,216.3,167.9,216.5,167.9,216.6z"/>
	<path class="st1" d="M177.9,213.9c-0.1,0.1-0.3,0.1-0.4,0.1c-0.4,0.1-0.8,0.1-1.2,0.1c-1.5-0.1-3-0.6-4.1-1.6
		c-1.8-1.5-2.7-3.7-2.6-5.9c0.1-1.3,0.4-2.6,0.9-3.8c0.5-1.3,1-2.6,1.4-3.9c0.7-2.6,0.8-5.3,0.3-7.9c-0.4-2.1-1.4-4.2-2.7-5.9
		c-0.9-1.2-2.1-2.1-3.3-2.9c-0.9-0.5-1.4-0.7-1.4-0.8c0.1,0,0.3,0.1,0.4,0.1c0.4,0.1,0.7,0.3,1.1,0.5c1.3,0.7,2.5,1.7,3.4,2.8
		c1.4,1.7,2.4,3.8,2.9,5.9c0.5,2.7,0.4,5.4-0.3,8.1c-0.4,1.3-0.9,2.7-1.4,4c-0.5,1.2-0.8,2.4-0.9,3.7c-0.1,2.2,0.8,4.3,2.4,5.7
		c1.1,0.9,2.5,1.5,4,1.6C176.8,214,177.4,214,177.9,213.9z"/>
	<path class="st5" d="M167.8,180.4c-0.4-0.3-0.8-0.6-1.2-0.9c-1.8-1.1-4.2-0.5-5.3,1.3c-0.2,0.3-0.3,0.6-0.4,0.9
		c-0.1,0.5-0.2,1-0.3,1.5c0,0-0.1-0.1-0.1-0.4c0-0.4,0-0.8,0.1-1.1c0.6-2.1,2.7-3.4,4.8-2.8c0.4,0.1,0.9,0.3,1.2,0.6
		c0.3,0.2,0.6,0.5,0.8,0.8C167.8,180.3,167.8,180.4,167.8,180.4z"/>
	<path class="st1" d="M161.5,207.6c0,0-0.1-0.1-0.2-0.2c-0.2-0.2-0.4-0.4-0.6-0.6c-0.7-0.8-1.3-1.7-1.8-2.6c-0.7-1.4-1.1-3-1.2-4.6
		c0-1,0.2-1.9,0.6-2.8c0.5-0.9,1.1-1.7,1.8-2.4c0.7-0.7,1.2-1.5,1.6-2.4c0.2-0.9,0.2-1.8-0.1-2.7c-0.5-1.7-1.4-3.1-1.5-4.5
		c-0.2-1.1,0-2.2,0.5-3.1c0.2-0.2,0.4-0.4,0.7-0.6c0.2-0.1,0.3-0.1,0.3-0.1c-0.3,0.2-0.6,0.5-0.8,0.8c-0.5,0.9-0.7,2-0.4,3
		c0.2,1.3,1.1,2.7,1.6,4.4c0.3,0.9,0.4,1.9,0.1,2.8c-0.4,1-0.9,1.8-1.6,2.6c-0.7,0.7-1.3,1.5-1.8,2.3c-0.4,0.8-0.6,1.7-0.6,2.6
		c0,1.6,0.4,3.1,1.1,4.5c0.5,1,1,1.9,1.7,2.7C161.2,207.3,161.5,207.6,161.5,207.6z"/>
	<path class="st1" d="M175.6,200.8c0-0.3,0-0.6,0-1c0-0.6,0.1-1.5,0.1-2.6c0.1-2.8-0.3-5.7-1.2-8.4c-1-2.7-2.7-5-5-6.7
		c-1-0.6-2-1.2-3.2-1.5c0,0,0.1,0,0.2,0c0.2,0,0.4,0.1,0.7,0.2c0.8,0.3,1.6,0.6,2.4,1.1c2.4,1.6,4.2,4,5.2,6.7
		c0.9,2.7,1.3,5.6,1.2,8.5c-0.1,1.1-0.2,2-0.2,2.6C175.8,200.2,175.7,200.5,175.6,200.8z"/>
	<path class="st1" d="M169.5,182c0-0.5,0-1,0-1.6c0.1-1.2-0.1-2.5-0.6-3.6c-0.5-1.1-1.5-2-2.7-2.3c-0.5-0.1-1-0.2-1.5-0.2
		c0.5-0.2,1.1-0.2,1.6,0c1.3,0.3,2.4,1.2,2.9,2.4c0.5,1.2,0.6,2.5,0.5,3.8C169.8,180.9,169.7,181.5,169.5,182z"/>
	<path class="st11" d="M170.6,169.6c-0.3-0.1-0.6-0.2-0.9-0.3c-0.7-0.3-1.5-0.4-2.3-0.3c-0.8,0.1-1.5,0.3-2.2,0.7
		c-0.3,0.2-0.5,0.4-0.8,0.5c0,0,0.2-0.3,0.7-0.7c0.7-0.5,1.5-0.8,2.3-0.8c0.8-0.1,1.6,0.1,2.4,0.4
		C170.4,169.3,170.6,169.6,170.6,169.6z"/>
	<path class="st1" d="M178.7,169.6c-0.5-0.6-1.1-1.2-1.7-1.7c-3.1-2.5-7.6-2.5-10.6,0.1c-0.6,0.5-1.2,1.1-1.7,1.7
		c0.1-0.2,0.2-0.4,0.3-0.6c0.3-0.5,0.7-0.9,1.2-1.3c3.1-2.8,7.8-2.9,10.9-0.1c0.5,0.4,0.9,0.8,1.2,1.3
		C178.5,169.2,178.6,169.4,178.7,169.6z"/>
	<path class="st11" d="M174.9,160.2c0,0.1-0.9,0.1-2.2,0.5c-3.5,1-6.3,3.6-7.6,7c-0.5,1.3-0.6,2.1-0.7,2.1c0-0.2,0-0.4,0-0.6
		c0.1-0.5,0.2-1.1,0.4-1.6c1.2-3.5,4.1-6.3,7.7-7.2c0.5-0.1,1.1-0.2,1.6-0.3C174.5,160.2,174.7,160.2,174.9,160.2z"/>
	<path class="st1" d="M164.5,160.1c0,0-0.4,0.5-0.8,1.3c-1.2,2.2-1.2,4.8,0.1,7c0.5,0.8,0.9,1.3,0.8,1.3c-0.4-0.3-0.8-0.7-1.1-1.2
		c-1.4-2.2-1.5-5-0.1-7.3C163.7,160.9,164,160.4,164.5,160.1z"/>
	<path class="st1" d="M155.3,162.6c0.1,0.6,0.3,1.2,0.5,1.7c0.6,1.3,1.6,2.4,2.8,3.1c1.3,0.7,2.6,1.3,4,1.6c0.6,0.1,1.2,0.3,1.7,0.5
		c-0.6,0-1.2-0.1-1.8-0.3c-1.5-0.3-2.8-0.8-4.1-1.6c-1.3-0.8-2.3-1.9-2.9-3.3c-0.2-0.4-0.3-0.9-0.3-1.3
		C155.2,162.9,155.2,162.8,155.3,162.6z"/>
	<path class="st1" d="M160.3,191.7c-0.1,0-0.2,0-0.3-0.1c-0.3-0.1-0.6-0.2-0.9-0.3c-1.1-0.5-2.1-1.1-3-1.8c-1.4-1.1-2.5-2.5-3.2-4.1
		c-0.9-2-1.2-4.2-0.8-6.4c0.4-2.2,1.5-4.1,3.1-5.6c1.4-1.2,3-1.9,4.8-2.1c1.2-0.2,2.4-0.1,3.5,0.2c0.3,0.1,0.6,0.2,0.9,0.3
		c0.1,0,0.2,0.1,0.3,0.2c0,0-0.4-0.2-1.2-0.4c-1.1-0.3-2.3-0.3-3.5-0.1c-1.7,0.3-3.3,1-4.6,2.1c-1.6,1.4-2.6,3.3-3,5.4
		c-0.4,2.1-0.1,4.2,0.7,6.2c0.7,1.6,1.8,3,3.1,4.1c0.9,0.8,1.9,1.4,2.9,1.9C159.9,191.6,160.3,191.7,160.3,191.7z"/>
	<path class="st1" d="M159.4,198.8c-0.1-0.1-0.3-0.1-0.4-0.2c-0.3-0.1-0.7-0.3-1.1-0.7c-1.4-0.8-2.7-1.8-3.8-2.9
		c-2.8-2.7-4.8-6-5.9-9.7c-0.5-1.5-0.7-3-0.7-4.5c0-1.5,0.4-3.1,1.2-4.4c0.7-1.3,1.6-2.4,2.7-3.3c1.9-1.5,4.1-2.6,6.5-2.9
		c1.6-0.2,3.2-0.3,4.8-0.1c0.6,0.1,1,0.2,1.3,0.2c0.2,0,0.3,0.1,0.4,0.1c-0.2,0-0.3,0-0.5,0c-0.3,0-0.7-0.1-1.3-0.2
		c-1.6-0.2-3.2-0.1-4.8,0.2c-2.3,0.4-4.5,1.4-6.3,2.9c-2.2,1.9-3.6,4.6-3.7,7.5c0,1.5,0.2,3,0.7,4.4c1.1,3.6,3.1,6.9,5.8,9.6
		c1.1,1.1,2.4,2.1,3.7,3C158.9,198.5,159.5,198.7,159.4,198.8z"/>
	<path class="st1" d="M175.6,191.6c0.7-1.2,1.3-2.5,1.8-3.8c0.4-1.5,0.6-3,0.5-4.5c-0.1-1.9-0.6-3.7-1.5-5.3c-1.6-3-4.3-5.3-7.6-6.4
		c-1-0.3-2-0.3-3-0.2c-0.7,0.2-1.1,0.4-1.1,0.3c0,0,0.1-0.1,0.3-0.2c0.3-0.1,0.5-0.2,0.8-0.3c1-0.2,2.1-0.2,3.1,0
		c1.5,0.4,2.9,1.1,4.2,2.1c1.5,1.2,2.8,2.7,3.7,4.4c0.9,1.7,1.4,3.6,1.5,5.5c0.1,1.6-0.2,3.1-0.6,4.6c-0.3,1-0.8,2-1.3,2.8
		c-0.2,0.2-0.3,0.5-0.5,0.7C175.6,191.6,175.6,191.6,175.6,191.6z"/>
</g>
<g id="freepik--Windows--inject-18">
	<rect x="172.2" y="11.3" class="st7" width="102.6" height="76.5"/>
	<path class="st0" d="M274.8,87.8c0,0,0-0.5,0-1.4c0-0.9,0-2.3,0-4.1c0-3.6,0-8.8,0-15.5c0-13.3,0-32.4-0.1-55.6l0.1,0.1H172.2l0,0
		l0.2-0.2c0,27.5,0,53.5,0,76.5l-0.2-0.2l74.1,0.1l21,0h5.6h1.4L274.8,87.8l-0.4-0.1H273h-5.6l-21,0l-74.2,0.1H172v-0.2
		c0-23,0-49,0-76.5V11h0.2h102.6h0.1v0.1c0,23.2-0.1,42.3-0.1,55.7c0,6.7,0,11.9,0,15.4c0,1.8,0,3.1,0,4
		C274.9,87.2,274.8,87.8,274.8,87.8z"/>
	<rect x="225.1" y="56.4" class="st4" width="62.4" height="24.3"/>
	<path class="st0" d="M287.5,80.7c0,0,0-0.2,0-0.4c0-0.3,0-0.7,0-1.3c0-1.1,0-2.7,0-4.8c0-4.2,0-10.2-0.1-17.7l0.1,0.1l-62.4,0.1
		l0,0l0.2-0.2c0,8.5,0,16.7,0,24.3l-0.2-0.2l44.7,0.1l13,0h3.5h0.9L287.5,80.7l-0.3,0h-0.9h-3.5l-13,0l-44.8,0.1H225v-0.2
		c0-7.6,0-15.8,0-24.3v-0.2h0.2l62.4,0.1h0.1v0.1c0,7.5-0.1,13.6-0.1,17.8c0,2.1,0,3.7,0,4.8c0,0.5,0,0.9,0,1.2
		C287.6,80.5,287.5,80.7,287.5,80.7z"/>
	<rect x="225.1" y="56.4" class="st0" width="62.4" height="5.2"/>
	<rect x="232.5" y="65.6" class="st0" width="6.1" height="6.1"/>
	<rect x="236.2" y="69.3" class="st0" width="6.1" height="6.1"/>
	<rect x="247.1" y="65.6" class="st0" width="6.1" height="6.1"/>
	<rect x="250.9" y="69.3" class="st11" width="6.1" height="6.1"/>
	<path class="st0" d="M257,75.4c0-0.2,0-0.3,0-0.5c0-0.3,0-0.8,0-1.3c0-1.1-0.1-2.6-0.1-4.4l0.1,0.2h-6.1l0.2-0.2l0,0v1.6
		c0,0.5,0,1.1,0,1.6c0,1,0,2,0,2.9l-0.1-0.2c1.8,0,3.3,0.1,4.4,0.1l1.3,0C256.7,75.4,256.9,75.4,257,75.4c-0.1,0-0.2,0-0.4,0l-1.2,0
		c-1.1,0-2.6,0.1-4.5,0.1h-0.2v-0.2c0-0.9,0-1.9,0-2.9c0-0.5,0-1,0-1.6v-1.6l0,0c-0.2,0.2,0.2-0.2,0.2-0.2h6.1h0.2v0.1
		c0,1.9,0,3.4-0.1,4.5c0,0.5,0,0.9,0,1.2C257,75.1,257,75.3,257,75.4z"/>
	<rect x="260.8" y="65.6" class="st11" width="6.1" height="6.1"/>
	<path class="st0" d="M266.9,71.7c0-0.2,0-0.3,0-0.5c0-0.3,0-0.8,0-1.3c0-1.1-0.1-2.6-0.1-4.4l0.1,0.1h-6.1c0,0,0.3-0.3,0.2-0.2l0,0
		v1.6c0,0.5,0,1.1,0,1.6c0,1,0,2,0,2.9l-0.2-0.1c1.8,0,3.3,0,4.4,0.1l1.3,0C266.6,71.7,266.8,71.7,266.9,71.7c-0.1,0-0.3,0-0.4,0
		l-1.2,0c-1.1,0-2.6,0.1-4.5,0.1h-0.1v-0.2c0-0.9,0-1.9,0-2.9c0-0.5,0-1,0-1.6v-1.6l0,0l0.2-0.2h6.1h0.2v0.2c0,1.9,0,3.4-0.1,4.5
		c0,0.5,0,0.9,0,1.2C267,71.4,267,71.6,266.9,71.7z"/>
	<rect x="264.5" y="69.3" class="st11" width="6.1" height="6.1"/>
	<path class="st0" d="M270.6,75.4c0-0.2,0-0.3,0-0.5c0-0.3,0-0.8,0-1.3c0-1.1-0.1-2.6-0.1-4.4l0.1,0.2h-6.1l0.2-0.2l0,0v1.6
		c0,0.5,0,1.1,0,1.6c0,1,0,2,0,2.9l-0.1-0.2c1.8,0,3.3,0.1,4.4,0.1l1.3,0C270.3,75.4,270.5,75.4,270.6,75.4c-0.1,0-0.2,0-0.4,0
		l-1.2,0c-1.1,0-2.6,0.1-4.5,0.1h-0.2v-0.2c0-0.9,0-1.9,0-2.9c0-0.5,0-1,0-1.6v-1.6l0,0c-0.2,0.2,0.2-0.2,0.2-0.2h6.1h0.2v0.1
		c0,1.9,0,3.4-0.1,4.5c0,0.5,0,0.9,0,1.2C270.7,75.1,270.7,75.3,270.6,75.4z"/>
	<rect x="264.5" y="69.3" class="st0" width="2.4" height="2.4"/>
	<rect x="273.3" y="65.6" class="st0" width="6.1" height="6.1"/>
	<rect x="277" y="69.3" class="st0" width="6.1" height="6.1"/>
	<rect x="277" y="69.3" class="st4" width="2.4" height="2.4"/>
	<rect x="239.9" y="130.4" class="st4" width="60" height="23.3"/>
	<path class="st12" d="M300,153.8h-60.1v-23.5H300V153.8z M240,153.7h59.8v-23.1H240L240,153.7z"/>
	<rect x="239.9" y="130.4" class="st0" width="60" height="5"/>
	<rect x="243.3" y="141.7" class="st11" width="5.9" height="5.9"/>
	<path class="st0" d="M249.2,147.6c0-0.1,0-0.3,0-0.5c0-0.3,0-0.7,0-1.2c0-1-0.1-2.5-0.1-4.3l0.2,0.2h-5.9c0,0,0.3-0.3,0.2-0.2l0,0
		v3.1c0,1,0,1.9,0,2.8l-0.1-0.1c1.7,0,3.2,0,4.2,0.1l1.2,0C249,147.5,249.1,147.6,249.2,147.6c-0.5,0-1,0.1-1.5,0
		c-1,0-2.5,0.1-4.3,0.1h-0.2v-0.2c0-0.9,0-1.8,0-2.8v-3.1l0,0l0.2-0.2h5.9h0.1v0.2c0,1.8,0,3.3-0.1,4.3
		C249.3,147,249.2,147.6,249.2,147.6z"/>
	<line class="st13" x1="249.2" y1="141.7" x2="243.3" y2="147.6"/>
	<path class="st5" d="M243.3,147.6c0.9-1.1,1.8-2.1,2.8-3.1c0.9-1,2-2,3.1-2.8c-0.9,1.1-1.8,2.1-2.8,3.1
		C245.4,145.8,244.4,146.7,243.3,147.6z"/>
	<rect x="251" y="141.7" class="st0" width="5.9" height="5.9"/>
	<rect x="258.7" y="141.7" class="st1" width="5.9" height="5.9"/>
	<rect x="266.4" y="141.7" class="st5" width="5.9" height="5.9"/>
	<rect x="274.1" y="141.7" class="st5" width="5.9" height="5.9"/>
	<g class="st8">
		<rect x="274.1" y="141.7" class="st7" width="5.9" height="5.9"/>
	</g>
	<rect x="281.8" y="141.7" class="st5" width="5.9" height="5.9"/>
	<g class="st6">
		<rect x="281.8" y="141.7" width="5.9" height="5.9"/>
	</g>
	<rect x="289.5" y="141.7" class="st5" width="5.9" height="5.9"/>
	<g class="st14">
		<rect x="289.5" y="141.7" width="5.9" height="5.9"/>
	</g>
	<rect x="63.4" y="11.3" class="st7" width="83.9" height="58.4"/>
	<path class="st0" d="M147.3,69.7c0,0,0-0.4,0-1.1s0-1.7,0-3.1c0-2.7,0-6.7,0-11.8c0-10.2,0-24.7-0.1-42.5l0.1,0.1H63.5l0,0l0.2-0.2
		c0,20.9,0,40.7,0,58.4l-0.2-0.2l60.4,0.1l17.2,0h4.6h1.2L147.3,69.7l-0.3-0.1h-1.2h-4.6l-17.2,0l-60.5,0.1h-0.2v0
		c0-17.7,0-37.5,0-58.4v-0.2h0.2l83.9,0h0.1v0.1c-0.2,17.7-0.2,32.4-0.2,42.5c0,5.1,0,9,0,11.7c0,1.3,0,2.4,0,3.1
		S147.3,69.7,147.3,69.7z"/>
	<rect x="63.4" y="11.3" class="st0" width="83.9" height="7.3"/>
	<path class="st7" d="M68,15.1c0,0.5-0.4,0.9-0.9,0.8c-0.5,0-0.9-0.4-0.8-0.9c0-0.5,0.4-0.8,0.9-0.8C67.6,14.2,68,14.6,68,15.1z"/>
	<path class="st7" d="M71.5,15.1c0,0.5-0.4,0.9-0.9,0.8c-0.5,0-0.9-0.4-0.8-0.9c0-0.5,0.4-0.8,0.9-0.8
		C71.1,14.2,71.5,14.6,71.5,15.1z"/>
	<path class="st7" d="M75.1,15.1c0,0.5-0.4,0.9-0.9,0.8c-0.5,0-0.9-0.4-0.8-0.9c0-0.5,0.4-0.8,0.9-0.8
		C74.7,14.2,75.1,14.6,75.1,15.1C75.1,15.1,75.1,15.1,75.1,15.1z"/>
	<rect x="71.4" y="25.7" class="st5" width="12" height="28.7"/>
	<rect x="89.8" y="25.7" class="st2" width="12" height="28.7"/>
	<rect x="108.3" y="25.7" class="st4" width="12" height="28.7"/>
	<rect x="126.7" y="25.9" class="st3" width="12" height="28.7"/>
	<rect x="70" y="57.5" class="st5" width="72.4" height="6.6"/>
	<polygon class="st0" points="136.9,62.8 138.5,70.7 139.8,68.4 142.5,72.4 143.9,71.5 141.2,67.6 143.7,67.2 	"/>
	<rect x="78.2" y="76.6" class="st4" width="36.9" height="63.3"/>
	<path class="st12" d="M115.1,139.9c0,0,0-0.1,0-0.3s0-0.5,0-0.9c0-0.8,0-2,0-3.5c0-3.1,0-7.5,0-13.1c0-11.2,0-27-0.1-45.5l0.2,0.2
		H78.3l0,0l0.2-0.2c0,24.2,0,46.3,0,63.3l-0.1-0.1l26.9,0.1l7.4,0h1.9L115.1,139.9l-0.6,0h-1.9l-7.4,0l-27,0.1h-0.1v-0.1
		c0-17,0-39.2,0-63.3v-0.2h0.2h36.9h0.2v0.2c0,18.6-0.1,34.4-0.1,45.6c0,5.6,0,10,0,13c0,1.5,0,2.7,0,3.5c0,0.4,0,0.7,0,0.9
		S115.1,139.9,115.1,139.9z"/>
	<rect x="78.2" y="76.6" class="st0" width="36.9" height="5.3"/>
	<polygon class="st0" points="87.1,88.6 87.5,94.5 89.2,92.4 92,92.2 	"/>
	<path class="st0" d="M103.1,88.6l0.3,0.2l1,0.7c0.9,0.6,2.1,1.5,3.6,2.6l0.2,0.2h-0.3l-2.7,0.1h-0.1l0.1,0l-1.7,2.2l-0.2,0.2v-0.3
		c-0.1-1.7-0.2-3.3-0.3-4.3c0-0.5,0-0.9-0.1-1.2C103.1,88.9,103.1,88.7,103.1,88.6c0,0,0,0.2,0.1,0.4c0,0.3,0.1,0.8,0.1,1.2
		c0.1,1.1,0.2,2.5,0.4,4.2l-0.2-0.1c0.5-0.7,1.1-1.4,1.6-2.2h0h0.1l2.7-0.1l-0.1,0.2c-1.4-1-2.6-2-3.4-2.6l-1-0.8
		C103.2,88.7,103.1,88.6,103.1,88.6z"/>
	<path class="st0" d="M86.1,114.3c0,0,1.8-2,4.1-4.4c2.3-2.4,4.2-4.3,4.3-4.2c0,0-1.8,2-4.1,4.4C88,112.5,86.1,114.4,86.1,114.3z"/>
	<path class="st0" d="M111.7,110c0-0.4-0.1-0.9-0.2-1.3c-0.3-1.2-1-2.2-1.9-3c-2.2-1.8-5.5-1.4-7.3,0.9c-0.1,0.1-0.1,0.2-0.2,0.3
		c-1.3,1.9-1.3,4.4,0,6.3c1.2,1.7,3.2,2.5,5.2,2.2c0.8-0.2,1.6-0.5,2.2-1c1-0.8,1.6-1.8,1.9-3C111.6,110.8,111.6,110.4,111.7,110
		c0,0.4,0,0.9-0.1,1.3c-0.3,1.2-0.9,2.3-1.9,3.1c-1.5,1.2-3.4,1.5-5.2,0.8c-1-0.4-1.9-1.1-2.5-2c-1.4-2-1.4-4.6,0-6.6
		c0.6-0.9,1.5-1.6,2.5-2c0.9-0.3,1.9-0.4,2.9-0.2c0.8,0.2,1.6,0.5,2.3,1.1c1,0.8,1.6,1.9,1.9,3.1C111.6,109,111.7,109.5,111.7,110z"
		/>
	<path class="st0" d="M106.9,124l0.1,0.1c0.1,0.1,0.2,0.2,0.4,0.3l1.5,1.2l0,0l0,0l-6.2,7.1l0,0h0l-0.7,0.1l-1.3,0.2h-0.1v-0.1
		c0.2-0.8,0.3-1.7,0.5-2.4l0,0l0,0c1.7-2,3.1-3.7,4.2-4.8C105.6,125.1,106.2,124.5,106.9,124l-0.1,0.1c-0.1,0.1-0.2,0.2-0.3,0.4
		c-0.3,0.3-0.7,0.8-1.2,1.4c-1,1.2-2.5,2.9-4.2,4.9v0c-0.1,0.8-0.3,1.6-0.5,2.4l-0.1-0.1l1.3-0.2l0.7-0.1l-0.1,0l6.3-7.1v0.1
		l-1.3-1.3l-0.4-0.3L106.9,124z"/>
	<path class="st0" d="M93.4,132.7c0,0,0-0.1,0-0.2V132c0-0.5,0-1.1,0-1.8c0-1.6,0-3.8,0-6.4l0.1,0.1h-8.7c0,0,0.2-0.2,0.1-0.1l0,0
		v4.7c0,1.5,0,2.9,0,4.2l-0.1-0.1l6.2,0h1.8h0.5L93.4,132.7c0-0.1,0-0.1-0.1-0.1h-0.5H91l-6.3,0h-0.1v-0.1c0-1.3,0-2.7,0-4.2
		c0-0.7,0-1.5,0-2.3v-2.4l0,0c-0.1,0.1,0.1-0.1,0.1-0.1h8.7h0.1v0.1c0,2.7,0,4.9,0,6.5c0,0.7,0,1.3,0,1.8v0.5
		C93.4,132.6,93.4,132.7,93.4,132.7z"/>
	<path class="st0" d="M86.1,123.8c-0.6,0.1-1.2,0.1-1.9,0.1c-0.6,0-1.3,0-1.9-0.1c0.6-0.1,1.3-0.1,1.9-0.1
		C84.8,123.6,85.4,123.7,86.1,123.8z"/>
	<path class="st0" d="M84.7,125.5c-0.1-1.4-0.1-2.8,0-4.2C84.9,122.6,84.9,124.1,84.7,125.5z"/>
	<rect x="21.1" y="95.5" class="st11" width="48.9" height="48.9"/>
	<ellipse transform="matrix(0.7555 -0.6552 0.6552 0.7555 -87.2784 93.3118)" class="st3" cx="81.4" cy="163.6" rx="9.2" ry="9.2"/>
	<ellipse transform="matrix(0.7071 -0.7071 0.7071 0.7071 -88.9812 105.0059)" class="st4" cx="82.3" cy="159.9" rx="8" ry="8"/>
	<circle class="st5" cx="82.3" cy="159.9" r="7.7"/>
	<path class="st0" d="M82.3,165.8c-3.3,0-5.9-2.6-5.9-5.9c0-3.3,2.6-5.9,5.9-5.9c3.3,0,5.9,2.6,5.9,5.9l0,0
		C88.2,163.2,85.5,165.8,82.3,165.8z M82.3,154c-3.2,0-5.9,2.6-5.9,5.9c0,3.2,2.6,5.9,5.9,5.9c3.2,0,5.9-2.6,5.9-5.9
		C88.1,156.7,85.5,154,82.3,154z"/>
	<g class="st10">
		<path d="M82.9,154.5c-2.1-0.5-4.1,0.8-4.6,2.9c-0.5,2.1,0.8,4.1,2.9,4.6c2.1,0.5,4.1-0.8,4.6-2.9c0-0.2,0.1-0.3,0.1-0.5
			c0.1-0.8-0.1-1.6-0.5-2.3C84.6,155.4,84.1,154.8,82.9,154.5"/>
	</g>
	<polygon class="st0" points="80.8,164.9 81.3,165.5 83.6,165.4 84.1,164.9 	"/>
	<circle class="st0" cx="238.5" cy="164.7" r="4.9"/>
	<path class="st1" d="M240.3,164.7c0,1-0.8,1.8-1.8,1.8c-1,0-1.8-0.8-1.8-1.8c0-1,0.8-1.8,1.8-1.8l0,0
		C239.5,162.9,240.3,163.7,240.3,164.7z"/>
	<path class="st0" d="M59.4,151.2c0-0.1,0.4-0.2,1-0.2c0.5,0,0.9,0.1,0.9,0.2s-0.4,0.2-0.9,0.2C59.8,151.4,59.4,151.3,59.4,151.2z"
		/>
	<path class="st0" d="M55.6,151.2c0-0.1,0.4-0.2,0.9-0.2s0.9,0.1,0.9,0.2s-0.4,0.2-0.9,0.2C56,151.4,55.6,151.3,55.6,151.2z"/>
	<path class="st0" d="M51.8,151.2c0-0.1,0.4-0.2,0.9-0.2c0.5,0,0.9,0.1,0.9,0.2s-0.4,0.2-0.9,0.2C52.3,151.4,51.8,151.3,51.8,151.2z
		"/>
	<path class="st0" d="M48.1,151.2c0-0.1,0.4-0.2,0.9-0.2c0.5,0,0.9,0.1,0.9,0.2s-0.4,0.2-0.9,0.2C48.5,151.4,48.1,151.3,48.1,151.2z
		"/>
	<path class="st0" d="M44.3,151.2c0-0.1,0.4-0.2,0.9-0.2c0.5,0,0.9,0.1,0.9,0.2s-0.4,0.2-0.9,0.2S44.3,151.3,44.3,151.2z"/>
	<path class="st0" d="M40.5,151.2c0-0.1,0.4-0.2,0.9-0.2c0.5,0,0.9,0.1,0.9,0.2s-0.4,0.2-0.9,0.2S40.5,151.3,40.5,151.2z"/>
	<path class="st0" d="M36.7,151.2c0-0.1,0.4-0.2,0.9-0.2s1,0.1,1,0.2s-0.4,0.2-1,0.2C37.1,151.4,36.7,151.3,36.7,151.2z"/>
	<path class="st0" d="M32.9,151.2c0-0.1,0.4-0.2,0.9-0.2c0.5,0,0.9,0.1,0.9,0.2s-0.4,0.2-0.9,0.2C33.3,151.4,32.9,151.3,32.9,151.2z
		"/>
	<path class="st0" d="M29.1,151.2c0-0.1,0.4-0.2,0.9-0.2s0.9,0.1,0.9,0.2s-0.4,0.2-0.9,0.2S29.1,151.3,29.1,151.2z"/>
	<path class="st0" d="M25.3,151.2c0-0.1,0.4-0.2,0.9-0.2c0.5,0,0.9,0.1,0.9,0.2s-0.4,0.2-0.9,0.2C25.7,151.4,25.3,151.3,25.3,151.2z
		"/>
	<path class="st0" d="M21.5,151.2c0-0.1,0.4-0.2,0.9-0.2s0.9,0.1,0.9,0.2s-0.4,0.2-0.9,0.2S21.5,151.3,21.5,151.2z"/>
	<path class="st0" d="M17.7,151.2c0-0.1,0.4-0.2,0.9-0.2s0.9,0.1,0.9,0.2s-0.4,0.2-0.9,0.2S17.7,151.3,17.7,151.2z"/>
	<path class="st0" d="M15.1,150.2c0.1,0,0.2,0.4,0.2,0.9v0.1l-0.2-0.2c0.5,0,0.8,0.1,0.8,0.2s-0.3,0.2-0.8,0.2h-0.2v-0.3
		C14.9,150.6,15,150.2,15.1,150.2z"/>
	<path class="st0" d="M15.1,146.4c0.1,0,0.2,0.4,0.2,0.9s-0.1,0.9-0.2,0.9s-0.2-0.4-0.2-0.9S15,146.4,15.1,146.4z"/>
	<path class="st0" d="M15.1,142.6c0.1,0,0.2,0.4,0.2,0.9c0,0.5-0.1,0.9-0.2,0.9s-0.2-0.4-0.2-0.9C14.9,143,15,142.6,15.1,142.6z"/>
	<path class="st0" d="M15.1,138.8c0.1,0,0.2,0.4,0.2,0.9c0,0.5-0.1,0.9-0.2,0.9s-0.2-0.4-0.2-0.9S15,138.8,15.1,138.8z"/>
	<path class="st0" d="M15.1,135c0.1,0,0.2,0.4,0.2,0.9s-0.1,1-0.2,1s-0.2-0.4-0.2-1S15,135,15.1,135z"/>
	<path class="st0" d="M15.1,131.2c0.1,0,0.2,0.4,0.2,0.9c0,0.5-0.1,0.9-0.2,0.9s-0.2-0.4-0.2-0.9C14.9,131.6,15,131.2,15.1,131.2z"
		/>
	<path class="st0" d="M15.1,127.4c0.1,0,0.2,0.4,0.2,0.9c0,0.5-0.1,0.9-0.2,0.9s-0.2-0.4-0.2-0.9C14.9,127.9,15,127.4,15.1,127.4z"
		/>
	<path class="st0" d="M15.1,123.7c0.1,0,0.2,0.4,0.2,0.9s-0.1,0.9-0.2,0.9s-0.2-0.4-0.2-0.9S15,123.7,15.1,123.7z"/>
	<path class="st0" d="M15.1,119.9c0.1,0,0.2,0.4,0.2,0.9c0,0.5-0.1,0.9-0.2,0.9s-0.2-0.4-0.2-0.9C14.9,120.3,15,119.9,15.1,119.9z"
		/>
	<path class="st0" d="M15.1,116.1c0.1,0,0.2,0.4,0.2,0.9s-0.1,0.9-0.2,0.9s-0.2-0.4-0.2-0.9S15,116.1,15.1,116.1z"/>
	<path class="st0" d="M15.1,112.3c0.1,0,0.2,0.4,0.2,0.9c0,0.5-0.1,0.9-0.2,0.9s-0.2-0.4-0.2-0.9C14.9,112.7,15,112.3,15.1,112.3z"
		/>
	<path class="st0" d="M15.1,108.5c0.1,0,0.2,0.4,0.2,0.9s-0.1,0.9-0.2,0.9s-0.2-0.4-0.2-0.9S15,108.5,15.1,108.5z"/>
	<path class="st0" d="M15.3,105c0,0-0.1,0.1-0.3,0.1l0.1-0.1c0,0.2,0.1,0.4,0,0.7c0,0.5-0.1,0.9-0.2,0.9s-0.2-0.4-0.2-0.9
		c0-0.2,0-0.4,0-0.7v-0.1H15C15.2,104.9,15.3,105,15.3,105z"/>
	<path class="st0" d="M19.1,105c0,0.1-0.4,0.2-0.9,0.2c-0.5,0-0.9-0.1-0.9-0.2c0-0.1,0.4-0.2,0.9-0.2
		C18.7,104.9,19.1,104.9,19.1,105z"/>
	<path class="st0" d="M22.9,105c0,0.1-0.4,0.2-0.9,0.2c-0.5,0-0.9-0.1-0.9-0.2c0-0.1,0.4-0.2,0.9-0.2
		C22.5,104.9,22.9,104.9,22.9,105z"/>
	<path class="st0" d="M26.7,105c0,0.1-0.4,0.2-0.9,0.2c-0.5,0-0.9-0.1-0.9-0.2c0-0.1,0.4-0.2,0.9-0.2S26.7,104.9,26.7,105z"/>
	<path class="st0" d="M30.5,105c0,0.1-0.4,0.2-0.9,0.2s-0.9-0.1-0.9-0.2c0-0.1,0.4-0.2,0.9-0.2S30.5,104.9,30.5,105z"/>
	<path class="st0" d="M34.3,105c0,0.1-0.4,0.2-0.9,0.2s-0.9-0.1-0.9-0.2c0-0.1,0.4-0.2,0.9-0.2S34.3,104.9,34.3,105z"/>
	<path class="st0" d="M38.1,105c0,0.1-0.4,0.2-0.9,0.2c-0.5,0-0.9-0.1-0.9-0.2c0-0.1,0.4-0.2,0.9-0.2S38.1,104.9,38.1,105z"/>
	<path class="st0" d="M41.8,105c0,0.1-0.4,0.2-0.9,0.2c-0.5,0-0.9-0.1-0.9-0.2c0-0.1,0.4-0.2,0.9-0.2S41.8,104.9,41.8,105z"/>
	<path class="st0" d="M45.6,105c0,0.1-0.4,0.2-0.9,0.2s-0.9-0.1-0.9-0.2c0-0.1,0.4-0.2,0.9-0.2C45.2,104.9,45.6,104.9,45.6,105z"/>
	<path class="st0" d="M49.4,105c0,0.1-0.4,0.2-0.9,0.2s-0.9-0.1-0.9-0.2c0-0.1,0.4-0.2,0.9-0.2C49,104.9,49.4,104.9,49.4,105z"/>
	<path class="st0" d="M53.2,105c0,0.1-0.4,0.2-0.9,0.2c-0.5,0-0.9-0.1-0.9-0.2c0-0.1,0.4-0.2,0.9-0.2
		C52.8,104.9,53.2,104.9,53.2,105z"/>
	<path class="st0" d="M57,105c0,0.1-0.4,0.2-0.9,0.2c-0.5,0-0.9-0.1-0.9-0.2c0-0.1,0.4-0.2,0.9-0.2C56.6,104.9,57,104.9,57,105z"/>
	<path class="st0" d="M60.8,105c0,0.1-0.4,0.2-0.9,0.2c-0.5,0-0.9-0.1-0.9-0.2c0-0.1,0.4-0.2,0.9-0.2S60.8,104.9,60.8,105z"/>
	<path class="st0" d="M61.3,108.3c-0.1,0-0.2-0.4-0.2-0.9s0.1-1,0.2-1c0.1,0,0.2,0.4,0.2,1S61.4,108.3,61.3,108.3z"/>
	<path class="st0" d="M61.3,112.1c-0.1,0-0.2-0.4-0.2-0.9c0-0.5,0.1-0.9,0.2-0.9c0.1,0,0.2,0.4,0.2,0.9
		C61.5,111.6,61.4,112.1,61.3,112.1z"/>
	<path class="st0" d="M61.3,115.8c-0.1,0-0.2-0.4-0.2-0.9s0.1-0.9,0.2-0.9c0.1,0,0.2,0.4,0.2,0.9S61.4,115.8,61.3,115.8z"/>
	<path class="st0" d="M61.3,119.6c-0.1,0-0.2-0.4-0.2-0.9s0.1-0.9,0.2-0.9c0.1,0,0.2,0.4,0.2,0.9S61.4,119.6,61.3,119.6z"/>
	<path class="st0" d="M61.3,123.4c-0.1,0-0.2-0.4-0.2-0.9s0.1-0.9,0.2-0.9c0.1,0,0.2,0.4,0.2,0.9S61.4,123.4,61.3,123.4z"/>
	<path class="st0" d="M61.3,127.2c-0.1,0-0.2-0.4-0.2-0.9c0-0.5,0.1-0.9,0.2-0.9c0.1,0,0.2,0.4,0.2,0.9
		C61.5,126.8,61.4,127.2,61.3,127.2z"/>
	<path class="st0" d="M61.3,131c-0.1,0-0.2-0.4-0.2-0.9s0.1-0.9,0.2-0.9c0.1,0,0.2,0.4,0.2,0.9S61.4,131,61.3,131z"/>
	<path class="st0" d="M61.3,134.8c-0.1,0-0.2-0.4-0.2-0.9s0.1-0.9,0.2-0.9c0.1,0,0.2,0.4,0.2,0.9C61.5,134.4,61.4,134.8,61.3,134.8z
		"/>
	<path class="st0" d="M61.3,138.6c-0.1,0-0.2-0.4-0.2-0.9s0.1-0.9,0.2-0.9c0.1,0,0.2,0.4,0.2,0.9S61.4,138.6,61.3,138.6z"/>
	<path class="st0" d="M61.3,142.4c-0.1,0-0.2-0.4-0.2-0.9s0.1-0.9,0.2-0.9c0.1,0,0.2,0.4,0.2,0.9S61.4,142.4,61.3,142.4z"/>
	<path class="st0" d="M61.3,146.1c-0.1,0-0.2-0.4-0.2-0.9c0-0.5,0.1-0.9,0.2-0.9c0.1,0,0.2,0.4,0.2,0.9S61.4,146.1,61.3,146.1z"/>
	<path class="st0" d="M61.3,149.9c-0.1,0-0.2-0.4-0.2-0.9c0-0.5,0.1-0.9,0.2-0.9c0.1,0,0.2,0.4,0.2,0.9S61.4,149.9,61.3,149.9z"/>
	<rect x="59.6" y="149.1" class="st0" width="3.4" height="3.4"/>
	<rect x="13.3" y="149.5" class="st0" width="3.4" height="3.4"/>
	<rect x="59.6" y="103" class="st0" width="3.4" height="3.4"/>
	<rect x="13.3" y="103.3" class="st0" width="3.4" height="3.4"/>
</g>
<g>
	<path class="st15" d="M201.4,19.7h3.3v9h5.6v2.6h-8.9V19.7z"/>
	<path class="st15" d="M218.8,23.2c0.8,0.7,1.2,1.7,1.2,3.1v5h-2.9v-1.2c-0.5,0.9-1.3,1.3-2.7,1.3c-0.7,0-1.3-0.1-1.8-0.4
		c-0.5-0.2-0.9-0.6-1.2-1c-0.3-0.4-0.4-0.9-0.4-1.4c0-0.9,0.3-1.5,1-2c0.7-0.5,1.7-0.7,3-0.7h1.8c-0.1-1-0.7-1.4-1.9-1.4
		c-0.4,0-0.9,0.1-1.3,0.2c-0.4,0.1-0.8,0.3-1.1,0.6l-1.1-2.1c0.5-0.3,1.1-0.6,1.8-0.8c0.7-0.2,1.4-0.3,2.2-0.3
		C216.9,22.2,218,22.5,218.8,23.2z M216.2,29.2c0.3-0.2,0.5-0.4,0.6-0.8v-0.8h-1.4c-0.9,0-1.4,0.3-1.4,0.9c0,0.3,0.1,0.5,0.3,0.7
		s0.5,0.2,0.9,0.2C215.6,29.5,216,29.4,216.2,29.2z"/>
	<path class="st15" d="M231.4,22.3l-3.7,9h-3.3l-3.7-9h3.2l2.2,5.5l2.3-5.5H231.4z"/>
	<path class="st15" d="M233.8,30.9c-0.8-0.4-1.4-1-1.8-1.7c-0.4-0.7-0.7-1.5-0.7-2.4c0-0.9,0.2-1.7,0.7-2.4c0.4-0.7,1-1.3,1.8-1.7
		c0.8-0.4,1.6-0.6,2.6-0.6s1.9,0.2,2.6,0.6c0.8,0.4,1.4,0.9,1.8,1.6c0.4,0.7,0.7,1.5,0.7,2.4s-0.2,1.7-0.7,2.4
		c-0.4,0.7-1,1.3-1.8,1.7c-0.8,0.4-1.7,0.6-2.6,0.6C235.5,31.5,234.6,31.3,233.8,30.9z M237.8,28.4c0.4-0.4,0.5-0.9,0.5-1.6
		c0-0.7-0.2-1.2-0.5-1.6c-0.4-0.4-0.8-0.6-1.4-0.6s-1,0.2-1.4,0.6c-0.4,0.4-0.5,0.9-0.5,1.6c0,0.7,0.2,1.2,0.5,1.6
		c0.4,0.4,0.8,0.6,1.4,0.6S237.5,28.8,237.8,28.4z"/>
	<path class="st15" d="M247.3,22.5c0.5-0.2,1.1-0.3,1.8-0.3V25c-0.3,0-0.5-0.1-0.7-0.1c-0.7,0-1.2,0.2-1.6,0.5
		c-0.4,0.4-0.6,0.9-0.6,1.7v4.1H243v-9h3v1.1C246.4,23,246.8,22.7,247.3,22.5z"/>
	<path class="st15" d="M250.5,20.8c-0.4-0.3-0.5-0.7-0.5-1.2c0-0.5,0.2-0.9,0.5-1.2c0.4-0.3,0.8-0.5,1.4-0.5c0.6,0,1,0.2,1.4,0.5
		s0.5,0.7,0.5,1.2c0,0.5-0.2,0.9-0.5,1.2c-0.4,0.3-0.8,0.5-1.4,0.5C251.4,21.3,250.9,21.1,250.5,20.8z M250.4,22.3h3.2v9h-3.2V22.3z
		"/>
	<path class="st15" d="M193.5,40.8c-0.4-0.3-0.5-0.7-0.5-1.2c0-0.5,0.2-0.9,0.5-1.2c0.4-0.3,0.8-0.5,1.4-0.5c0.6,0,1,0.2,1.4,0.5
		s0.5,0.7,0.5,1.2c0,0.5-0.2,0.9-0.5,1.2c-0.4,0.3-0.8,0.5-1.4,0.5C194.3,41.3,193.8,41.1,193.5,40.8z M193.3,42.3h3.2v9h-3.2V42.3z
		"/>
	<path class="st15" d="M207.1,43.1c0.7,0.7,1,1.7,1,3v5.2h-3.2v-4.6c0-1.2-0.5-1.8-1.5-1.8c-0.5,0-1,0.2-1.3,0.5
		c-0.3,0.4-0.5,0.9-0.5,1.6v4.4h-3.2v-9h3v1c0.4-0.4,0.8-0.6,1.3-0.8c0.5-0.2,1-0.3,1.6-0.3C205.5,42.1,206.4,42.5,207.1,43.1z"/>
	<path class="st15" d="M216.9,50.9c-0.8-0.4-1.4-1-1.8-1.7c-0.4-0.7-0.7-1.5-0.7-2.4s0.2-1.7,0.7-2.4c0.4-0.7,1.1-1.3,1.8-1.6
		c0.8-0.4,1.7-0.6,2.7-0.6c1,0,1.9,0.2,2.6,0.7c0.7,0.4,1.3,1,1.6,1.8l-2.5,1.2c-0.4-0.8-1-1.2-1.8-1.2c-0.6,0-1,0.2-1.4,0.6
		c-0.4,0.4-0.6,0.9-0.6,1.6c0,0.7,0.2,1.2,0.6,1.6c0.4,0.4,0.8,0.6,1.4,0.6c0.8,0,1.4-0.4,1.8-1.2l2.5,1.2c-0.3,0.8-0.8,1.4-1.6,1.8
		c-0.7,0.4-1.6,0.7-2.6,0.7C218.5,51.5,217.7,51.3,216.9,50.9z"/>
	<path class="st15" d="M226.8,50.9c-0.8-0.4-1.4-1-1.8-1.7c-0.4-0.7-0.7-1.5-0.7-2.4c0-0.9,0.2-1.7,0.7-2.4c0.4-0.7,1-1.3,1.8-1.7
		c0.8-0.4,1.6-0.6,2.6-0.6s1.9,0.2,2.6,0.6c0.8,0.4,1.4,0.9,1.8,1.6c0.4,0.7,0.7,1.5,0.7,2.4s-0.2,1.7-0.7,2.4
		c-0.4,0.7-1,1.3-1.8,1.7c-0.8,0.4-1.7,0.6-2.6,0.6C228.4,51.5,227.6,51.3,226.8,50.9z M230.8,48.4c0.4-0.4,0.5-0.9,0.5-1.6
		c0-0.7-0.2-1.2-0.5-1.6c-0.4-0.4-0.8-0.6-1.4-0.6s-1,0.2-1.4,0.6c-0.4,0.4-0.5,0.9-0.5,1.6c0,0.7,0.2,1.2,0.5,1.6
		c0.4,0.4,0.8,0.6,1.4,0.6S230.4,48.8,230.8,48.4z"/>
	<path class="st15" d="M240.2,42.5c0.5-0.2,1.1-0.3,1.8-0.3V45c-0.3,0-0.5-0.1-0.7-0.1c-0.7,0-1.2,0.2-1.6,0.5
		c-0.4,0.4-0.6,0.9-0.6,1.7v4.1H236v-9h3v1.1C239.3,43,239.7,42.7,240.2,42.5z"/>
	<path class="st15" d="M244.4,51.2c-0.7-0.2-1.3-0.4-1.8-0.7l1-2.2c0.4,0.3,0.9,0.5,1.5,0.6c0.6,0.1,1.1,0.2,1.7,0.2
		c0.5,0,0.9-0.1,1.1-0.2c0.2-0.1,0.3-0.3,0.3-0.5c0-0.2-0.1-0.3-0.4-0.4c-0.3-0.1-0.7-0.2-1.2-0.2c-0.7-0.1-1.3-0.2-1.8-0.4
		c-0.5-0.1-0.9-0.4-1.3-0.8c-0.4-0.4-0.5-0.9-0.5-1.6c0-0.6,0.2-1.1,0.5-1.5c0.3-0.5,0.8-0.8,1.5-1.1s1.5-0.4,2.4-0.4
		c0.7,0,1.3,0.1,1.9,0.2s1.2,0.3,1.6,0.6l-0.9,2.1c-0.8-0.4-1.7-0.7-2.6-0.7c-0.5,0-0.9,0.1-1.1,0.2c-0.2,0.1-0.4,0.3-0.4,0.5
		c0,0.2,0.1,0.4,0.4,0.4c0.3,0.1,0.7,0.2,1.3,0.3c0.7,0.1,1.4,0.2,1.8,0.4c0.5,0.1,0.9,0.4,1.3,0.8s0.5,0.9,0.5,1.6
		c0,0.6-0.2,1.1-0.5,1.5c-0.3,0.5-0.9,0.8-1.5,1.1s-1.5,0.4-2.4,0.4C245.9,51.5,245.1,51.4,244.4,51.2z"/>
	<path class="st15" d="M254.4,50.9c-0.8-0.4-1.4-1-1.8-1.7c-0.4-0.7-0.7-1.5-0.7-2.4c0-0.9,0.2-1.7,0.7-2.4c0.4-0.7,1-1.3,1.8-1.7
		c0.8-0.4,1.6-0.6,2.6-0.6s1.9,0.2,2.6,0.6c0.8,0.4,1.4,0.9,1.8,1.6c0.4,0.7,0.7,1.5,0.7,2.4s-0.2,1.7-0.7,2.4
		c-0.4,0.7-1,1.3-1.8,1.7c-0.8,0.4-1.7,0.6-2.6,0.6C256,51.5,255.1,51.3,254.4,50.9z M258.4,48.4c0.4-0.4,0.5-0.9,0.5-1.6
		c0-0.7-0.2-1.2-0.5-1.6c-0.4-0.4-0.8-0.6-1.4-0.6s-1,0.2-1.4,0.6c-0.4,0.4-0.5,0.9-0.5,1.6c0,0.7,0.2,1.2,0.5,1.6
		c0.4,0.4,0.8,0.6,1.4,0.6S258,48.8,258.4,48.4z"/>
</g>
</svg>
